<?xml version="1.0" encoding="UTF-8" standalone="no"?>
<svg width="36px" height="62px" viewBox="0 0 36 62" version="1.1" xmlns="http://www.w3.org/2000/svg" xmlns:xlink="http://www.w3.org/1999/xlink" xmlns:sketch="http://www.bohemiancoding.com/sketch/ns">
    <!-- Generator: Sketch 3.3.3 (12081) - http://www.bohemiancoding.com/sketch -->
    <title>ice copy 7</title>
    <desc>Created with Sketch.</desc>
    <defs></defs>
    <g id="Page-1" stroke="none" stroke-width="1" fill="none" fill-rule="evenodd" sketch:type="MSPage">
        <g id="ice-copy-7" sketch:type="MSLayerGroup">
            <rect id="Rectangle-2" fill="#CB9B8C" sketch:type="MSShapeGroup" x="13" y="36" width="11" height="26" rx="8"></rect>
            <path d="M35.9999993,18.0049641 C35.9999998,18.0033095 36,18.0016548 36,18 C36,8.0588745 27.9411255,0 18,0 C8.0588745,0 0,8.0588745 0,18 C0,18.0016548 2.23294161e-07,18.0033095 6.69853995e-07,18.0049641 C5.01484724e-07,18.0066183 0,18.0082731 0,18.009928 L0,45.0095952 C0,47.2100582 1.7864638,49 3.99017859,49 L32.0098214,49 C34.2147544,49 36,47.2134349 36,45.0095952 L36,18.009928 C36,18.0082731 35.9999995,18.0066183 35.9999985,18.0049636 Z" id="Oval-1" fill="#F9FAFA" sketch:type="MSShapeGroup"></path>
            <g id="D8-Copy-2" transform="translate(9.000000, 14.000000)" fill="#2BA9E0" sketch:type="MSShapeGroup">
                <path d="M8.94142568,12.9998149 C7.07191554,12.9998149 5.55666554,14.479594 5.55666554,16.3049015 C5.55666554,18.1301463 7.07191554,19.6102388 8.94142568,19.6102388 C10.8100372,19.6102388 12.3252872,18.130209 12.3252872,16.3049015 C12.3253514,14.479594 10.8100372,12.9998149 8.94142568,12.9998149 L8.94142568,12.9998149 Z" id="Shape"></path>
                <path d="M13.1496689,12.3692507 C14.1524324,13.3919194 14.7696757,14.7774179 14.7696757,16.3048388 C14.7696757,18.2391582 13.7805203,19.9471791 12.2704696,20.9755522 C15.0615439,20.1345493 17.3709426,18.0857642 18.4047736,15.6040657 C19.8342669,12.1713493 18.5033041,9.58734627 16.2686858,7.24481194 C16.3367264,7.54808955 16.3749189,7.86246269 16.3749189,8.18554925 C16.3749831,10.1722746 15.0109628,11.847009 13.1496689,12.3692507 L13.1496689,12.3692507 Z" id="Shape"></path>
                <path d="M9.32771622,8.18561194 C9.32771622,9.58195522 10.4872297,10.7138239 11.9169155,10.7138239 C13.3466014,10.7138239 14.505473,9.58189254 14.505473,8.18561194 C14.505473,6.78958209 13.3465372,5.65777612 11.9169155,5.65777612 C10.4872939,5.65777612 9.32771622,6.78958209 9.32771622,8.18561194 L9.32771622,8.18561194 Z" id="Shape"></path>
                <path d="M4.48297297,19.9701851 C3.62797297,18.9796746 3.11279054,17.7015582 3.11279054,16.3048388 C3.11279054,13.3912299 5.35511149,10.9907104 8.24587162,10.6549612 C7.74981757,9.95299701 7.45852703,9.10252836 7.45852703,8.18561194 C7.45852703,5.78145672 9.45423311,3.83215522 11.9169797,3.83215522 C12.1202669,3.83215522 12.3200236,3.84682388 12.5156723,3.87258806 C11.0572297,2.64336716 9.60199662,1.3967194 8.45333108,0.0336626866 C9.04002027,6.00248955 2.88684459,3.8336597 0.612236486,9.33390448 C-0.914246622,13.0242627 0.46152027,17.5862149 4.48297297,19.9701851 L4.48297297,19.9701851 Z" id="Shape"></path>
            </g>
        </g>
    </g>
</svg>