<?xml version="1.0" encoding="utf-8"?>
<!-- Generated by IcoMoon.io -->
<!DOCTYPE svg PUBLIC "-//W3C//DTD SVG 1.1//EN" "http://www.w3.org/Graphics/SVG/1.1/DTD/svg11.dtd">
<svg version="1.1" xmlns="http://www.w3.org/2000/svg" xmlns:xlink="http://www.w3.org/1999/xlink" width="24" height="28" viewBox="0 0 24 28">
<path d="M18.234 24.781q-0.078-0.297-0.375-0.078-0.469 0.344-1.359 0.609t-2.047 0.266q-2.016 0-3.016-0.766-0.078-0.063-0.203-0.063-0.172 0-0.406 0.187-0.109 0.094-0.117 0.25t0.117 0.313q0.531 0.5 1.367 0.719t1.602 0.195 1.547-0.070q0.641-0.063 1.32-0.32t1.016-0.469 0.445-0.32q0.187-0.187 0.109-0.453zM17.625 22.984q-0.297-0.734-0.609-0.953-0.359-0.234-1.188-0.234-0.734 0-1.109 0.156-0.453 0.187-1.219 0.875-0.406 0.375-0.187 0.688 0.141 0.125 0.273 0.070t0.492-0.367q0.047-0.031 0.164-0.133t0.164-0.133 0.156-0.109 0.18-0.109 0.195-0.078 0.234-0.070 0.258-0.039 0.32-0.016q0.422 0 0.695 0.117t0.359 0.227 0.211 0.344q0.156 0.266 0.195 0.313t0.195-0.016q0.359-0.187 0.219-0.531zM23.172 18.594q0-0.344-0.078-0.695t-0.258-0.703-0.531-0.57-0.82-0.219q-0.516 0-1.516 0.648t-2.016 1.305-1.578 0.656q-0.422 0.016-0.992-0.297t-1.188-0.766-1.305-0.906-1.563-0.766-1.734-0.297q-1.797 0.016-3.078 1.227t-1.313 2.789q-0.031 1.75 1.156 2.562 0.453 0.313 0.977 0.445t1.617 0.133q0.891 0 2.063-0.508t2.094-1.109 1.875-1.102 1.453-0.484q0.406 0.016 1.016 0.492t1.117 1.047 1.062 1.055 0.867 0.5q0.547 0.047 0.914-0.219t0.867-0.984q0.438-0.641 0.664-1.578t0.227-1.656zM24 16.094q0 2.562-0.969 4.758t-2.594 3.687-3.789 2.336-4.539 0.844-4.578-0.898-3.867-2.453-2.664-3.773-1-4.719q0-1.391 0.305-2.695t0.766-2.273 1.102-1.852 1.227-1.469 1.227-1.086 1.008-0.727 0.664-0.383q0.219-0.125 0.797-0.414t0.852-0.445 0.75-0.469 0.945-0.688q0.562-0.438 0.906-1.133t0.469-1.961q2.016 2.422 2.906 3.016 0.688 0.453 2.031 1.062t2.016 1.031q0.328 0.203 0.609 0.391t0.945 0.727 1.188 1.102 1.172 1.484 1.078 1.906 0.734 2.32 0.305 2.773z"></path>
</svg>
