<?xml version="1.0" encoding="UTF-8" standalone="no"?>
<svg width="736px" height="54px" viewBox="0 0 736 54" version="1.1" xmlns="http://www.w3.org/2000/svg" xmlns:xlink="http://www.w3.org/1999/xlink">
    <!-- Generator: Sketch 3.7.2 (28276) - http://www.bohemiancoding.com/sketch -->
    <title>title divider</title>
    <desc>Created with Sketch.</desc>
    <defs></defs>
    <g id="Layout" stroke="none" stroke-width="1" fill="none" fill-rule="evenodd">
        <g id="page-top-menu-variation" transform="translate(-211.000000, -1207.000000)">
            <g id="title-divider" transform="translate(211.000000, 1209.000000)">
                <g>
                    <path d="M0.5,27.5 L735.5,27.5" id="Line" stroke="#A0004F" stroke-linecap="square"></path>
                    <g id="divider-icon" transform="translate(341.000000, 0.000000)">
                        <circle id="Oval-13" stroke="#E3005A" stroke-width="3" fill="#A0004F" cx="25" cy="25" r="25"></circle>
                        <g id="icon-coffee-6" transform="translate(13.297872, 9.574468)" fill="#FFFFFF">
                            <g id="Icons">
                                <g id="Group">
                                    <path d="M22.429078,11.7021277 L0.975177305,11.7021277 C0.435904255,11.7021277 0,11.2652482 0,10.7269504 L0,6.82624113 C0,6.28794326 0.435904255,5.85106383 0.975177305,5.85106383 L22.429078,5.85106383 C22.9683511,5.85106383 23.4042553,6.28794326 23.4042553,6.82624113 L23.4042553,10.7269504 C23.4042553,11.2652482 22.9683511,11.7021277 22.429078,11.7021277 L22.429078,11.7021277 Z M1.95035461,9.75177305 L21.4539007,9.75177305 L21.4539007,7.80141844 L1.95035461,7.80141844 L1.95035461,9.75177305 L1.95035461,9.75177305 Z" id="Shape"></path>
                                    <path d="M19.5035461,7.80141844 C18.964273,7.80141844 18.5283688,7.36453901 18.5283688,6.82624113 L18.5283688,2.08005319 L4.87588652,3.78661348 L4.87588652,6.82624113 C4.87588652,7.36453901 4.43998227,7.80141844 3.90070922,7.80141844 C3.36143617,7.80141844 2.92553191,7.36453901 2.92553191,6.82624113 L2.92553191,2.92553191 C2.92553191,2.43404255 3.29219858,2.01861702 3.77978723,1.95815603 L19.3826241,0.00780141844 C19.6585993,-0.0273049645 19.9394504,0.0594858156 20.1491135,0.244769504 C20.3587766,0.429078014 20.4787234,0.695301418 20.4787234,0.975177305 L20.4787234,6.82624113 C20.4787234,7.36453901 20.0428191,7.80141844 19.5035461,7.80141844 L19.5035461,7.80141844 Z" id="Shape"></path>
                                    <path d="M18.5283688,31.2056738 L4.87588652,31.2056738 C4.35611702,31.2056738 3.92801418,30.7980496 3.9016844,30.2792553 L2.92650709,10.7757092 C2.9001773,10.2383865 3.31365248,9.78005319 3.85195035,9.7537234 C4.37659574,9.72251773 4.84760638,10.1408688 4.87491135,10.6791667 L5.80328014,29.2553191 L17.6009752,29.2553191 L18.529344,10.6781915 C18.5566489,10.1398936 19.0198582,9.72446809 19.552305,9.75274823 C20.0906028,9.77907801 20.5050532,10.2374113 20.4777482,10.774734 L19.5025709,30.2782801 C19.4762411,30.7980496 19.0481383,31.2056738 18.5283688,31.2056738 L18.5283688,31.2056738 Z" id="Shape"></path>
                                    <path d="M7.36356383,20.4787234 L4.6320922,20.4787234 C4.36294326,20.4787234 4.14450355,20.2602837 4.14450355,19.9911348 C4.14450355,19.7219858 4.36294326,19.5035461 4.6320922,19.5035461 L7.36356383,19.5035461 C7.63271277,19.5035461 7.85115248,19.7219858 7.85115248,19.9911348 C7.85115248,20.2602837 7.63271277,20.4787234 7.36356383,20.4787234 L7.36356383,20.4787234 Z" id="Shape"></path>
                                    <path d="M18.7721631,20.4787234 L16.0406915,20.4787234 C15.7715426,20.4787234 15.5531028,20.2602837 15.5531028,19.9911348 C15.5531028,19.7219858 15.7715426,19.5035461 16.0406915,19.5035461 L18.7721631,19.5035461 C19.0413121,19.5035461 19.2597518,19.7219858 19.2597518,19.9911348 C19.2597518,20.2602837 19.0413121,20.4787234 18.7721631,20.4787234 L18.7721631,20.4787234 Z" id="Shape"></path>
                                    <path d="M11.7021277,25.3546099 C9.01356383,25.3546099 6.82624113,23.1672872 6.82624113,20.4787234 C6.82624113,20.3382979 6.84379433,20.2046986 6.86134752,20.0701241 L6.87890071,19.9375 C7.15487589,17.4664007 9.22810284,15.6028369 11.7021277,15.6028369 C14.1761525,15.6028369 16.2493794,17.4664007 16.5253546,19.9365248 L16.5429078,20.0691489 C16.560461,20.2046986 16.5780142,20.3382979 16.5780142,20.4787234 C16.5780142,23.1672872 14.3906915,25.3546099 11.7021277,25.3546099 L11.7021277,25.3546099 Z M11.7021277,16.5780142 C9.72641844,16.5780142 8.06861702,18.0680851 7.84822695,20.0457447 L7.82774823,20.2027482 C7.8160461,20.2934397 7.80141844,20.3841312 7.80141844,20.4787234 C7.80141844,22.6299645 9.55088652,24.3794326 11.7021277,24.3794326 C13.8533688,24.3794326 15.6028369,22.6299645 15.6028369,20.4787234 C15.6028369,20.3841312 15.5882092,20.2934397 15.5765071,20.201773 L15.5560284,20.0447695 C15.3356383,18.0680851 13.6778369,16.5780142 11.7021277,16.5780142 L11.7021277,16.5780142 Z" id="Shape"></path>
                                </g>
                            </g>
                        </g>
                    </g>
                </g>
            </g>
        </g>
    </g>
</svg>