<?xml version="1.0" encoding="UTF-8" standalone="no"?>
<svg width="246px" height="60px" viewBox="0 0 246 60" version="1.1" xmlns="http://www.w3.org/2000/svg" xmlns:xlink="http://www.w3.org/1999/xlink">
    <!-- Generator: Sketch 3.7.2 (28276) - http://www.bohemiancoding.com/sketch -->
    <title>geekroyale-tatoo-tshirt</title>
    <desc>Created with Sketch.</desc>
    <defs></defs>
    <g id="Symbols" stroke="none" stroke-width="1" fill="none" fill-rule="evenodd">
        <g id="footer" transform="translate(-389.000000, -190.000000)">
            <g id="geekroyale-tatoo-tshirt" transform="translate(389.000000, 190.000000)">
                <g id="Layer_1">
                    <g id="Group" transform="translate(0.000000, 5.610849)">
                        <path d="M222.681127,30.0734028 C222.612587,30.5058123 222.581467,30.9000679 222.581467,31.2524292 C222.580726,31.9792212 222.701503,32.4314557 222.837099,32.6790811 L222.850807,32.704517 L222.86822,32.7404264 C223.600292,34.2351566 224.451289,35.2368802 225.403798,35.8813797 C226.361494,36.5217646 227.458861,36.8569193 228.905223,36.8636524 C230.922497,36.8561712 232.749714,36.2778797 234.586563,34.9791552 C236.261883,33.7922736 237.649337,32.23545 238.775973,30.2256439 C239.625488,28.7062259 240.013753,27.173716 240.017828,25.4979425 L240.017828,25.4496892 L240.019681,25.4040542 C240.025979,25.3019368 240.028202,25.1919642 240.027461,25.0760066 C240.029684,24.3032057 239.882973,23.4641967 239.622524,22.8047349 C239.364669,22.1359217 239.002708,21.6855575 238.69706,21.4899259 C238.486256,21.3567618 238.302127,21.2901797 237.98944,21.285317 C237.963136,21.285317 237.940907,21.285691 237.929422,21.2871873 L237.870145,21.2901797 L237.814572,21.2901797 C237.209205,21.278584 236.146663,21.5744627 234.694744,22.3390344 L229.616178,24.9806222 C229.232729,25.5488142 228.783705,26.0968071 228.277256,26.6219825 C226.559702,28.4039882 224.694696,29.6462302 222.681127,30.0734028 L222.681127,30.0734028 Z" id="Shape"></path>
                        <path d="M6.91393373,43.4373231 L6.91245181,43.4474226 L6.90467169,43.482958 C6.84206024,43.760134 6.80945783,44.0634939 6.80538253,44.2378042 C7.03989759,44.057509 7.39741265,43.6950481 7.80420181,43.1530401 C8.64778916,42.0398476 9.69995783,40.1972448 10.8610482,37.6817142 L10.8714217,37.6596448 C10.8832771,37.6349571 10.894762,37.6106434 10.9066175,37.5859557 C10.4086898,37.9057741 9.99189759,38.2147448 9.65512952,38.5042646 L9.65587048,38.5050127 C8.2020994,39.7880269 7.33665361,41.3179184 6.91393373,43.4373231 L6.91393373,43.4373231 Z" id="Shape"></path>
                        <path d="M12.5408133,25.7650189 L12.5330331,25.7874623 L12.5215482,25.8155165 C12.2573946,26.5071472 12.1710723,27.0308264 12.1695904,27.5025118 C12.1707018,27.7823061 12.2203464,28.038909 12.3203765,28.3029929 C12.4670873,28.2465104 12.6723343,28.1470113 12.9194458,27.9962665 C13.3688404,27.7247014 13.9493855,27.2892995 14.6288494,26.7005344 C14.8229819,25.7137731 15.0085934,24.7430962 15.160491,23.7896259 L15.323503,22.6214472 C14.0979488,23.2319075 13.0013223,24.4023307 12.5408133,25.7650189 L12.5408133,25.7650189 Z" id="Shape"></path>
                        <path d="M205.385548,29.1214288 L205.372581,29.1708042 C205.182895,29.8938557 205.053226,30.7938358 205.007286,31.7506726 C205.343313,31.4177623 205.721946,30.9483212 206.113916,30.3292575 C206.804123,29.2459896 207.386521,28.0516269 207.843325,26.790308 C207.934834,26.3096453 208.03931,25.8125241 208.157864,25.2955778 C208.472404,23.6302778 209.005527,21.3661132 209.758717,18.4712892 L209.463072,18.9512038 C207.513967,22.1082415 206.16319,25.4747509 205.392958,29.0862675 L205.385548,29.1214288 L205.385548,29.1214288 Z" id="Shape"></path>
                        <path d="M55.8960904,25.0935873 C55.8753434,25.1392222 55.8534849,25.1957047 55.8301446,25.2645311 C55.7327078,25.5592877 55.6534247,26.0665085 55.6560181,26.7401844 C55.6560181,26.829584 55.6563886,26.9193575 55.6589819,26.9990316 C55.7230753,28.6785458 56.2261898,29.9533307 57.019762,30.874258 C57.8196325,31.7899486 58.9440452,32.4228524 60.5541596,32.6446679 C60.6975361,32.664867 60.853509,32.6745925 61.0235602,32.6745925 C62.4076807,32.6996542 64.6839217,31.8449349 67.476244,29.8254033 C69.9214247,28.1313009 71.534503,24.7655396 71.515238,21.6503962 C71.515238,20.5787241 71.3340723,19.7834797 71.0547289,19.2006995 C70.7768675,18.6321335 70.4223163,18.2292745 69.8665934,17.8713024 C69.659494,17.7661925 69.3753343,17.6865184 68.9285331,17.6850222 C68.264259,17.6782892 67.2250572,17.9427472 65.9061416,18.6351259 L63.3683404,19.9589123 C63.0445392,20.4040396 62.6633133,20.8652514 62.2146596,21.3743425 C60.5900964,23.1814099 58.4368554,24.4457212 55.8960904,25.0935873 L55.8960904,25.0935873 Z" id="Shape"></path>
                        <path d="M40.8334066,26.3784717 C40.7519006,26.849783 40.7167048,27.2762075 40.7170753,27.6476458 C40.7200392,28.2869085 40.8371114,28.6437585 40.9764127,28.8992392 C41.1620241,29.1966142 41.3235542,29.3353892 41.4272892,29.4012231 C41.5380633,29.466309 41.5958584,29.4820193 41.7236747,29.486134 C42.0163554,29.4947373 42.670997,29.341 43.5679337,28.8401382 C43.952494,28.6302925 44.2270211,28.3811708 44.4785783,28.0665892 L44.4978434,28.0422755 L44.5163675,28.0205802 C44.8509127,27.6248283 45.1761958,27.1759604 45.489253,26.6784651 C45.7282139,26.1488009 46.0145964,25.422383 46.3421024,24.5246472 C46.6836867,23.6003533 46.9604367,22.7998722 47.1664247,22.1478915 C46.9448765,22.4108533 46.7111024,22.6685783 46.4602861,22.9199443 C44.7338404,24.7116755 42.8588313,25.9569099 40.8334066,26.3784717 L40.8334066,26.3784717 Z" id="Shape"></path>
                        <path d="M28.4274488,26.3784717 C28.3455723,26.8490349 28.310747,27.2762075 28.3111175,27.6480198 C28.3140813,28.2977561 28.4363404,28.6575986 28.5789759,28.9130792 C28.761253,29.2011028 28.9190783,29.3365113 29.0224428,29.4012231 C29.1328464,29.4655608 29.1899006,29.4820193 29.3173464,29.486134 C29.611509,29.4939892 30.2650392,29.341 31.1634578,28.8401382 C31.5472771,28.6299184 31.8206928,28.382667 32.0726205,28.0669632 L32.092256,28.0422755 L32.1100392,28.0205802 C33.0425422,26.9186094 33.9083584,25.4122835 34.6126446,23.5431226 L34.6908163,23.3355212 C34.8060361,22.7998722 34.9545994,22.2470165 35.1394699,21.6728396 C34.8149277,22.1026307 34.4537078,22.5197038 34.0546988,22.9203184 C32.328994,24.7116755 30.453244,25.957658 28.4274488,26.3784717 L28.4274488,26.3784717 Z" id="Shape"></path>
                        <path d="M172.68459,28.1088575 C172.483048,28.7380208 172.385982,29.3638175 172.3845,29.9948509 C172.386352,30.3569377 172.440072,30.7182764 172.560479,31.0915849 C173.279214,30.4676585 173.845681,29.6941094 174.277292,28.7125849 C173.82938,28.6026123 173.401473,28.455234 172.992461,28.264091 C172.888355,28.2162118 172.785732,28.1642179 172.68459,28.1088575 L172.68459,28.1088575 Z" id="Shape"></path>
                        <path d="M198.887295,26.3324627 C197.956274,27.6020108 197.503916,28.7911368 197.40759,29.8871226 C197.74547,29.5512198 198.082608,29.1535976 198.420117,28.6875231 C198.79838,28.1731953 199.603437,26.8019038 200.690801,24.7038203 C200.708584,24.5388613 200.727108,24.3750245 200.746373,24.2108137 C200.152861,24.747959 199.534527,25.4437042 198.89137,26.3249816 L197.387214,25.2073005 L197.387214,25.2073005 L198.887295,26.3324627 L198.887295,26.3324627 Z" id="Shape"></path>
                        <path d="M185.603991,27.1523948 C185.788593,26.3231113 185.964378,25.5005608 186.129693,24.6854915 C185.830473,25.6153962 185.515272,26.5464231 185.183539,27.4770759 C185.326261,27.3682255 185.465677,27.2597491 185.603991,27.1523948 L185.603991,27.1523948 Z" id="Shape"></path>
                        <path d="M151.126617,14.0723835 C152.307714,12.4212976 153.808536,11.048884 155.596111,10.0075104 C154.433169,9.73295283 153.133518,9.58894104 151.678265,9.5866967 C149.790289,9.58744481 148.125714,9.85826179 146.611184,10.3841854 C147.878602,10.5151052 149.054142,11.0432731 149.909214,11.9264208 C150.4905,12.5185524 150.905069,13.2625509 151.126617,14.0723835 L151.126617,14.0723835 Z" id="Shape"></path>
                        <path d="M164.656988,30.3285094 L164.656988,31.3354698 C164.729973,31.7140151 164.695148,31.7757344 164.705151,31.8329651 L164.705151,32.2474198 C165.176404,32.0544066 165.605422,31.7117708 166.108166,31.1428307 C166.741319,30.3932212 166.868024,29.869916 166.861355,29.6570778 C166.858392,29.314816 166.793187,29.1236731 166.698714,28.957966 C166.600907,28.7948774 166.44975,28.6276741 166.133358,28.4440123 L166.098904,28.4238132 L166.075563,28.4095991 C165.763617,28.2195783 165.422404,28.1133462 164.897801,28.1092316 C164.41247,28.1122241 164.110527,28.2019976 163.849708,28.3445132 C163.597039,28.4877769 163.349187,28.7054778 163.080217,29.1105811 C163.016123,29.2213019 162.977223,29.307709 162.956105,29.3649396 C163.040575,29.4509726 163.255455,29.6230387 163.625566,29.8074486 L164.656988,30.3285094 L164.656988,30.3285094 Z" id="Shape"></path>
                        <path d="M177.098142,47.1042 L177.091473,47.1378651 L177.082211,47.1846222 C177.007744,47.5201509 176.98181,47.7797462 176.98181,47.9372241 C176.98181,47.9506901 176.982551,47.9637821 176.982551,47.9765 C176.991813,47.9693929 177.001816,47.9626599 177.011819,47.9551788 C177.243,47.7808684 177.607554,47.415041 178.020642,46.8591929 C178.856078,45.749367 179.896021,43.9086344 181.031919,41.3979665 C181.047849,41.361683 181.064521,41.3261476 181.080452,41.2906123 C180.57919,41.612675 180.160175,41.923516 179.822666,42.2156542 L178.870898,41.0867514 C178.869416,41.0882476 178.869045,41.0882476 178.867934,41.0889958 L179.811181,42.2257538 C178.377416,43.4474226 177.468623,45.0281858 177.098142,47.1042 L177.098142,47.1042 Z" id="Shape"></path>
                        <path d="M158.536997,14.7123943 L158.528476,14.723616 L158.519584,14.7382042 C157.235123,16.5699594 155.993268,18.9242717 154.831437,21.695283 L154.69584,22.0139792 C154.743633,22.0154755 154.791425,22.0162236 154.838846,22.0165976 C156.24075,22.0035057 157.441482,21.5045142 158.789295,20.247684 C160.550566,18.5763991 161.271524,17.0588514 161.354883,15.4111321 C161.355253,15.3838259 161.355253,15.3490387 161.355253,15.3067703 C161.340804,14.3981868 161.135557,13.6627915 160.652819,12.9614354 C159.692901,13.4162882 159.03159,13.9863505 158.536997,14.7123943 L158.536997,14.7123943 Z" id="Shape"></path>
                        <path d="M158.548111,26.677717 C158.611464,26.5071472 158.678892,26.3391958 158.749654,26.1746108 C158.258395,26.2849575 157.761208,26.3691203 157.261057,26.4252288 C157.527804,26.9429231 157.841973,27.5799415 158.176148,28.3265585 C158.220235,27.7703363 158.346199,27.213366 158.548111,26.677717 L158.548111,26.677717 Z" id="Shape"></path>
                        <path d="M146.134744,15.3773491 C146.224659,15.4859191 146.31798,15.5972171 146.413345,15.7117885 L146.530507,15.8525476 C146.899024,15.4368171 147.060463,15.1351124 147.080898,15.0505478 C147.079535,15.0440008 147.079535,15.0396362 147.079535,15.0363628 C147.076811,15.0118117 147.067274,14.9605274 147.04752,14.8994226 C146.690584,15.0576403 146.388823,15.2174947 146.134744,15.3773491 L146.134744,15.3773491 Z" id="Shape"></path>
                        <path d="M74.3979578,15.3168698 L74.3812861,15.3007854 C73.0401416,14.0144047 71.2055151,13.4697783 69.2645602,13.4776335 C67.9838042,13.4795038 66.6515512,13.705808 65.2188976,14.0660245 L64.7131898,14.1928297 L64.3456717,14.5665123 C64.0229819,14.9188736 63.9844518,15.0449307 63.8388524,15.2749755 C63.827738,15.2944264 63.8166235,15.3135033 63.805509,15.3333283 C63.5298705,15.0460528 63.2075512,14.8384514 62.9100542,14.7112722 C62.4262048,14.5006783 61.9734759,14.4292335 61.5192651,14.399309 C61.3725542,14.3907057 61.2343645,14.3888354 61.1024729,14.3888354 C60.4159699,14.3925759 59.7239096,14.4793571 59.0222169,14.6428198 C59.5979458,13.2700321 60.0851295,11.835525 60.4826566,10.3392986 C60.8012711,9.15690566 60.9776205,8.029125 60.9776205,6.94884953 C60.9968855,4.69029575 60.1518163,2.57388349 58.558744,1.11506274 C58.0674849,0.639636792 57.3709789,0.234533491 56.4755241,0.226678302 C55.8812711,0.225182075 55.3255482,0.421561792 54.8902319,0.689012264 C54.232256,1.09785613 53.7754518,1.63238302 53.351991,2.24845425 C52.9318645,2.86826604 52.5550843,3.59243962 52.1808976,4.44566274 C50.982759,7.21704811 49.907991,10.3826892 48.8865723,13.9160278 L48.8687892,13.9762509 L48.8554518,14.0349778 C48.8465602,14.0753759 48.8387801,14.1127816 48.8298886,14.1531797 C48.5827771,13.4383575 48.2482319,12.7908656 47.7569729,12.2237958 C47.0812139,11.4169557 45.9668042,10.883925 44.8946295,10.9074906 C44.392997,10.9074906 43.9087771,11.0010047 43.4467861,11.1513755 C40.8304428,12.0049726 38.7379608,14.0364741 37.2104639,16.8759377 L37.2015723,16.8920222 L37.1960151,16.9028698 C37.0889458,17.108975 36.9918795,17.307225 36.890738,17.5088415 C36.9174127,17.2630863 36.9329729,17.0150868 36.9329729,16.765591 C36.9366777,16.2149797 36.8644337,15.5921755 36.6684488,14.9802189 C36.4068886,13.930616 36.0264036,13.0022075 35.3506446,12.2234217 C34.675256,11.4177038 33.5608464,10.883925 32.4883012,10.9071165 C31.9870392,10.9082387 31.5035602,11.0006307 31.0419398,11.1513755 C28.4248554,12.0057208 26.3323735,14.0364741 24.804506,16.8759377 L24.7900572,16.9028698 C23.5133765,19.3615439 22.673494,21.4903 22.273003,23.3916297 C22.0903554,23.8453604 21.8984458,24.2859991 21.6909759,24.7075608 C22.5127048,21.1611302 23.1369669,18.2988491 23.5793223,16.1304429 L24.2006205,13.0796373 L21.2356536,13.936975 C20.5447048,14.1370953 19.9334096,14.3252458 19.4288133,14.452425 L19.3725,14.4662651 L17.2074036,15.1563995 C16.9928946,15.1298415 16.7809789,15.1186198 16.5761024,15.1212382 C15.3835211,15.1223604 14.2316928,15.50315 13.1495151,16.1210915 C12.0621506,16.7416514 11.0188735,17.6049741 9.97040964,18.6878679 C7.45002108,21.2733472 5.9840241,24.0432363 5.97957831,26.9590075 C5.97957831,27.3390491 6.00551205,27.7172203 6.05552711,28.092025 C6.23446988,29.4225443 6.74351205,30.6905962 7.74307229,31.594691 C8.27286145,32.0779722 8.89786446,32.4105085 9.56658434,32.6139953 C9.15016265,32.803642 8.73411145,32.995159 8.31917169,33.1889203 L8.25359639,33.219967 L8.19024398,33.2558764 C6.00551205,34.4902632 4.1368012,36.1510745 2.68303012,38.2764642 C1.08106627,40.6229212 0.140783133,42.683225 0.117072289,44.7674684 C0.117072289,45.2675821 0.178572289,45.7654514 0.313057229,46.2457401 L0.321207831,46.2760387 L0.332322289,46.3112 C0.606108434,47.1625528 0.978442771,47.930491 1.56084036,48.5757387 C2.1339759,49.2202382 2.96681928,49.6926717 3.83078313,49.8209731 L3.87820482,49.8288283 L3.93229518,49.8340651 C4.14050602,49.8561344 4.35723795,49.8684783 4.57952711,49.8684783 L4.58397289,49.8684783 C5.69467771,49.8684783 6.83131627,49.5714774 7.91015964,49.0014151 C10.1923283,47.8238849 12.1314307,46.1892575 13.715241,44.2138646 L13.7326536,44.1921693 C15.6191476,41.7723972 17.2340783,38.9609877 18.5841145,35.7317571 L18.6567289,35.5563245 L18.6945181,35.3663038 C18.6974819,35.3288981 18.829744,34.8508538 19.0527741,34.231042 C19.0927861,34.1162066 19.1309458,34.0140892 19.1646596,33.9288042 C20.3924367,33.2944042 21.8517651,32.585567 23.1021416,31.3874637 C23.2244006,31.60105 23.3551807,31.8101476 23.4981867,32.010642 C24.5396114,33.5079906 26.3190361,34.5624561 28.340756,34.5624561 C28.3626145,34.5624561 28.3844729,34.5624561 28.4059608,34.5620821 C28.9742801,34.5609599 29.4733193,34.501859 29.9064127,34.4536057 L29.9927349,34.4442542 L30.0735,34.4274217 C32.2634187,33.9804241 34.1688072,33.0232132 35.6448072,31.6089052 C35.7289066,31.7439396 35.8111536,31.8808443 35.9034036,32.010642 C36.9451988,33.5079906 38.7253645,34.5624561 40.7478253,34.5624561 L40.8119187,34.5624561 C41.3798675,34.5609599 41.8789066,34.502233 42.312,34.4543538 L42.3957289,34.4442542 L42.4790873,34.4274217 C44.4985843,34.0148373 46.2743042,33.1679731 47.6965843,31.9302198 L47.8796024,32.0458033 L48.9110241,30.6707712 C48.9991988,30.5529434 49.0851506,30.4287566 49.1722139,30.3079363 C49.23075,30.2278882 49.2889157,30.1489623 49.3470813,30.0651736 C49.5660361,29.7547066 49.7816566,29.4382547 49.9932018,29.109459 C50.522991,31.2965679 51.7040873,33.312359 53.4316446,34.8276623 C55.5067139,36.6425849 58.1993765,37.561642 61.171012,37.561642 L61.2162108,37.561642 C63.2931325,37.5582755 65.4993524,37.0607802 67.8874789,36.1910986 C70.5864398,35.2099481 72.785991,33.2296925 74.4301898,30.5959599 C76.0303012,28.0707038 76.9153825,25.3049292 77.0220813,22.448633 C77.0272681,22.2814297 77.0309729,22.1205854 77.0309729,21.9470231 C77.0517199,19.4236373 76.1618223,17.0708212 74.4161114,15.3359467 L74.3979578,15.3168698 L74.3979578,15.3168698 Z M46.3421024,24.5238991 C46.0145964,25.4212608 45.7278434,26.1480528 45.489253,26.677717 C45.1761958,27.1752123 44.8509127,27.6240802 44.5163675,28.0198321 L44.4978434,28.0415274 L44.4785783,28.065841 C44.2266506,28.3807967 43.9521235,28.6295443 43.5679337,28.8393901 C42.670997,29.3402519 42.0163554,29.4939892 41.7236747,29.4853858 C41.595488,29.4812712 41.5380633,29.4655608 41.4272892,29.400475 C41.3231837,29.334641 41.1616536,29.195866 40.9764127,28.898491 C40.8371114,28.6430104 40.7204096,28.2861604 40.7170753,27.6468976 C40.7167048,27.2758335 40.7519006,26.8490349 40.8334066,26.3777236 C42.8588313,25.9561618 44.7338404,24.7109274 46.4602861,22.9188222 C46.7107319,22.6674561 46.9448765,22.4097311 47.1664247,22.1467693 C46.9604367,22.7991241 46.6836867,23.5999792 46.3421024,24.5238991 L46.3421024,24.5238991 Z M63.3683404,19.9589123 L65.9061416,18.6351259 C67.2250572,17.9427472 68.2646295,17.6782892 68.9285331,17.6850222 C69.3753343,17.6865184 69.6598645,17.7658184 69.8665934,17.8713024 C70.4223163,18.2292745 70.7768675,18.6321335 71.0547289,19.2006995 C71.3340723,19.7834797 71.515238,20.5787241 71.515238,21.6503962 C71.534503,24.7655396 69.9214247,28.1313009 67.476244,29.8254033 C64.6835512,31.8449349 62.4073102,32.6996542 61.0235602,32.6745925 C60.853509,32.6745925 60.6979066,32.664867 60.5541596,32.6446679 C58.9440452,32.4228524 57.820003,31.7903226 57.019762,30.874258 C56.2258193,29.9533307 55.7227048,28.6785458 55.6589819,26.9990316 C55.656759,26.9193575 55.6560181,26.829584 55.6560181,26.7401844 C55.6534247,26.0665085 55.7327078,25.5592877 55.8301446,25.2645311 C55.8531145,25.1957047 55.8753434,25.1392222 55.8960904,25.0935873 C58.4368554,24.4457212 60.5900964,23.1814099 62.2146596,21.3743425 C62.6633133,20.8652514 63.0445392,20.4036656 63.3683404,19.9589123 L63.3683404,19.9589123 Z M35.1398404,21.6720915 C34.9549699,22.2462684 34.8064066,22.7994981 34.6911867,23.3347731 L34.6130151,23.5423745 C33.9090994,25.4119094 33.0429127,26.9178613 32.1104096,28.0198321 L32.0926265,28.0415274 L32.072991,28.0662151 C31.8210633,28.3822929 31.5476476,28.6291703 31.1638283,28.8393901 C30.2654096,29.3402519 29.6118795,29.493241 29.3177169,29.4853858 C29.1902711,29.4812712 29.1328464,29.4648127 29.0228133,29.400475 C28.9194488,29.3357632 28.7616235,29.2003547 28.5793464,28.9123311 C28.4367108,28.6568505 28.3148223,28.297008 28.311488,27.6472717 C28.3111175,27.2758335 28.3459428,26.8482868 28.4278193,26.3777236 C30.4536145,25.9569099 32.3293645,24.7109274 34.0550693,22.9188222 C34.4540783,22.5189557 34.8149277,22.1015085 35.1398404,21.6720915 L35.1398404,21.6720915 Z M15.160491,23.7896259 C15.0089639,24.7430962 14.8233524,25.7141472 14.6288494,26.7005344 C13.9493855,27.2892995 13.3688404,27.7247014 12.9194458,27.9962665 C12.6723343,28.1470113 12.4670873,28.2465104 12.3203765,28.3029929 C12.2203464,28.038909 12.1707018,27.7823061 12.1695904,27.5025118 C12.1710723,27.0304524 12.2573946,26.5067731 12.5215482,25.8155165 L12.5330331,25.7874623 L12.5408133,25.7650189 C13.0013223,24.4023307 14.0979488,23.2319075 15.323503,22.6210731 L15.160491,23.7896259 L15.160491,23.7896259 Z M9.6555,38.5046387 C9.99189759,38.2151189 10.4090602,37.9061481 10.906988,37.5863297 C10.8951325,37.6110175 10.8832771,37.6353311 10.8717922,37.6600189 L10.8614187,37.6820882 C9.70032831,40.1976189 8.64815964,42.0402217 7.80457229,43.1534142 C7.39778313,43.6954222 7.04063855,44.057883 6.80575301,44.2381783 C6.80982831,44.0634939 6.84243072,43.760508 6.90504217,43.4833321 L6.91282229,43.4477967 L6.91430422,43.4376972 C7.33739458,41.3182925 8.20246988,39.7884009 9.65624096,38.5053868 L9.6555,38.5046387 L9.6555,38.5046387 Z" id="Shape" fill="#000000"></path>
                        <path d="M244.744066,21.2568887 L244.744066,21.2568887 C244.187973,19.9585382 243.261398,18.8558193 242.065852,18.1653108 C240.871419,17.4680693 239.483964,17.1792976 238.005,17.1804198 C236.763886,17.1826642 235.442006,17.4078462 234.00713,17.7688108 L233.173916,17.9790307 L232.789726,18.7548241 C232.613006,19.1113 232.449623,19.3394745 232.236967,19.6903396 L230.978069,21.8075 C231.06291,21.3672354 231.107738,20.9202377 231.107738,20.4680033 C231.106627,19.4808679 230.980663,18.5457264 230.664642,17.6730524 C230.352325,16.8026226 229.83291,16.0040118 229.143813,15.3868184 L229.028593,15.2828307 L228.899295,15.1997901 C228.277997,14.7973052 227.531846,14.6057882 226.828672,14.6106509 C226.324075,14.6106509 225.835039,14.696684 225.360452,14.8380774 L225.333407,14.8455585 L225.321551,14.8500472 C222.765596,15.6729717 220.730169,17.6749226 219.067075,20.4608962 C217.666283,22.8024906 216.721184,25.1856052 216.382563,27.6397906 C215.94169,28.7062259 215.381892,29.7543325 214.652042,30.7755071 L214.630925,30.8039354 L214.616105,30.8252566 C213.953313,31.8363316 213.306081,32.5025264 212.812229,32.8821939 C212.765548,32.7067613 212.724425,32.4396849 212.726648,32.070117 C212.726648,31.8913179 212.735169,31.6904495 212.755175,31.4701302 L212.755916,31.4570382 L212.758139,31.4271137 C212.873358,29.6380009 213.171226,28.3351618 213.550229,27.4609915 C215.870187,25.4567962 217.788542,22.4437703 219.507208,18.4615637 L218.46356,18.0044665 C218.464301,18.0037184 218.464672,18.0025962 218.464672,18.0018481 L219.510172,18.4540825 C221.144738,14.5968108 222.124663,11.0765642 222.339172,7.87501368 C222.356214,7.592975 222.365105,7.32178396 222.365105,7.05021887 C222.377331,4.82944481 221.709723,2.77699623 220.234093,1.35857358 L220.152217,1.27964764 L220.064413,1.21269151 C219.720235,0.961699528 219.205636,0.608216038 218.367605,0.592879717 C217.549581,0.601108962 216.957551,0.968806604 216.544093,1.31892358 C215.917238,1.86654245 215.490443,2.51141604 215.030675,3.32760755 C214.580539,4.14305094 214.132256,5.13355283 213.661373,6.32866368 L213.647295,6.36457311 L213.636181,6.39636792 C211.951229,11.2101024 210.791991,14.8646354 210.063994,17.3154542 L210.05325,17.3521118 L210.048434,17.3700665 C210.014349,17.4983679 209.983229,17.617692 209.949886,17.7441231 L207.514708,13.8097958 L203.890654,14.8773533 C202.899244,15.1425594 202.019349,15.4664925 201.240596,15.8831915 C198.248955,17.3663259 195.813777,19.805175 193.996193,23.0123363 C193.383045,24.0888712 192.938837,25.2293698 192.658753,26.4177476 L192.473512,26.9279608 C192.336804,27.3038877 192.181572,27.682059 192.005964,28.0624745 C192.029675,27.9528759 192.054127,27.8432774 192.077096,27.7333047 L194.34778,16.739033 L186.932584,18.9762656 C186.994084,18.6268967 187.052991,18.2775278 187.111157,17.9277849 L187.341596,16.5430274 L186.409834,16.0795712 L184.820837,14.7449373 L183.64678,15.6037712 C182.278961,16.6036245 181.247169,17.313584 180.543994,17.7875137 L180.320223,17.9382585 C180.254648,17.5851491 180.178328,17.2350321 180.090524,16.8890297 L180.096822,16.8890297 C180.862238,16.8957627 181.791407,16.6832986 182.494581,15.9740873 C183.197386,15.2637538 183.40819,14.3259939 183.401892,13.5528189 C183.405596,12.7706665 183.211464,11.835525 182.511623,11.1053665 C181.807337,10.3759561 180.860015,10.1597514 180.096822,10.1672325 C179.334,10.1593774 178.387048,10.3759561 177.682021,11.1053665 C177.584214,11.2071099 177.49678,11.3125939 177.417867,11.4214443 C176.714693,10.712233 175.785524,10.4986467 175.018627,10.5061278 C174.25247,10.4986467 173.322931,10.712233 172.620497,11.4218184 C171.918063,12.1317778 171.70763,13.0695377 171.715039,13.8427127 C171.710223,14.624117 171.904355,15.5592585 172.604196,16.289791 C172.868349,16.5639745 173.167699,16.765217 173.478163,16.9103509 C173.294404,17.0442632 173.110645,17.1830382 172.923922,17.3263019 C170.763271,18.9781358 169.172422,21.0268439 168.215096,23.3493613 C168.163599,23.3171925 168.114325,23.2827792 168.062087,23.2509844 L168.020223,23.2255486 L167.973542,23.2012349 C167.228503,22.8013684 166.410849,22.5137189 165.55022,22.3831731 C166.308226,21.5838142 166.960274,20.6782231 167.474133,19.6761255 L167.47969,19.6649038 L167.494139,19.6346052 C167.932048,18.7125557 168.160265,17.6921292 168.157672,16.6533741 C168.157672,15.9939123 168.071349,15.3288396 167.911672,14.6589042 L167.909449,14.6495528 L167.904262,14.6304759 C167.618991,13.5232684 167.096611,12.5024679 166.380099,11.5613415 L168.870849,11.1723226 L166.291925,8.56888868 C166.263398,8.5333533 166.176705,8.41515142 166.068524,8.2498184 L165.386837,7.22078868 L164.180919,7.44223019 C163.634087,7.5421033 163.141717,7.64085425 162.661572,7.73885708 L161.910976,7.88997594 C158.260988,5.86894811 154.093807,4.84478113 149.52206,4.84739953 C148.803696,4.8485217 148.133123,4.90238585 147.510343,4.95026509 C144.552045,5.18704292 142.074633,5.87268868 140.11997,7.17477972 C138.162343,8.46452689 136.827867,10.4503934 136.34587,12.7643075 L136.341795,12.7815142 L136.338831,12.7957283 C136.187675,13.5647887 136.063563,14.3222533 136.062452,15.1481703 C136.042075,17.1508693 136.720057,19.0690316 138.166419,20.3393278 C139.601666,21.6096241 141.506684,22.1639759 143.708458,22.3023769 C143.873693,22.3128505 144.051895,22.3199575 144.234172,22.3199575 C145.364512,22.3266906 146.472994,22.0558736 147.474407,21.543416 C147.422169,21.6690991 147.370301,21.7959042 147.317693,21.9227094 L146.980925,22.7482524 C146.261078,24.4427288 145.73166,25.7564156 145.387482,26.6496627 C144.198605,29.565434 142.706304,31.4521755 140.995789,32.5350693 C140.466741,32.8346887 139.874711,32.9962811 139.08966,32.9992736 C139.015193,32.9992736 138.941837,32.9988995 138.868111,32.995533 C137.859289,32.9540127 137.020148,32.7329453 136.23806,32.3046505 C135.545259,31.9264792 135.128837,31.5333458 134.885801,31.1697627 C134.645729,30.8009429 134.534955,30.4526962 134.529768,29.9465976 C134.530509,29.5381278 134.614238,29.0915042 134.832822,28.6153302 L134.839491,28.5999939 L134.846901,28.5839094 C134.956563,28.3411467 135.162922,28.0692075 135.660849,27.7538778 C136.15322,27.444159 136.923822,27.134066 137.956355,26.9021509 L139.415313,26.5714849 L139.415313,22.131059 L137.217985,22.527933 C135.071783,22.9128373 133.17047,23.7877557 131.684467,25.1728873 C129.991364,26.6706099 128.949569,28.7937552 128.973651,31.1065472 C128.972539,31.8707448 129.115916,32.5575127 129.292265,33.1485222 L129.30375,33.1851797 L129.308937,33.2020123 C129.80316,34.7165675 130.666753,36.0455906 131.920464,36.933975 C133.17047,37.8275962 134.710193,38.2199816 136.350316,38.216241 C137.26837,38.216241 138.254223,38.0995354 139.28194,37.8122599 C140.824256,37.4176302 142.430295,36.7248774 144.18638,35.7635519 C145.95469,34.7895085 147.424021,33.8072358 148.543617,32.6813255 C149.925886,31.2479406 151.08216,29.6761547 152.02837,27.9764415 C152.030964,27.9831745 152.033557,27.9902816 152.036521,27.9977627 L153.429904,31.6833425 C154.098994,33.4623557 154.717699,34.7895085 155.598705,35.7942245 L155.598334,35.7942245 C156.988012,37.4108972 158.919705,38.3621231 160.94513,38.3621231 L161.018114,38.3621231 C161.770934,38.3591307 162.471515,38.2308292 163.162834,38.0711071 L163.173949,38.0688627 L163.207663,38.0598854 C165.198633,37.5455575 167.015105,36.5064283 168.558163,35.0577071 C168.655229,34.9701778 168.748961,34.8800302 168.841952,34.7898825 C169.169458,35.3820142 169.54031,35.9711533 169.95488,36.5573 L170.732521,37.6566524 L172.014389,37.2665113 C173.826416,36.7188925 175.403928,35.5862491 176.653563,34.0428915 L177.009226,34.640634 C177.490852,35.4874981 178.154756,36.2053127 178.929434,36.7162741 C178.768645,36.7910854 178.608596,36.8662708 178.448178,36.9414561 L178.398533,36.9638995 L178.35037,36.9908316 C176.141187,38.1848203 174.265807,39.8542349 172.812407,41.9796245 C171.212295,44.2782024 170.267196,46.3489797 170.246078,48.4478113 C170.246078,48.9524137 170.30869,49.4532755 170.439099,49.9346863 C170.691398,50.8212005 171.057063,51.6153226 171.65391,52.2777769 C172.244087,52.9424755 173.105087,53.4055575 173.974608,53.5263778 L174.024623,53.533859 L174.073157,53.5387217 C174.285072,53.5596689 174.504398,53.5716387 174.728169,53.5716387 L174.73706,53.5716387 C175.863696,53.5716387 177.011819,53.276134 178.089181,52.7034533 C180.370979,51.5270453 182.310081,49.893166 183.894262,47.917025 C186.067139,45.1471358 187.829521,41.824391 189.225497,37.9989142 L189.238464,37.9622566 L189.244762,37.9446759 C189.288849,37.8103896 189.330714,37.6925618 189.367021,37.5938108 C190.592575,36.9683882 192.076355,36.2823684 193.304873,35.0502259 C193.312654,35.0734175 193.318952,35.0958608 193.327102,35.1190524 L193.630527,35.9939708 L194.503012,36.2846127 C194.977229,36.4267542 195.267316,36.4256321 195.467377,36.424884 C195.522949,36.4241358 195.572223,36.4241358 195.61631,36.4271283 C196.586602,36.4301208 197.52281,36.1117986 198.347133,35.6060741 C199.017334,35.1953599 199.635298,34.6664439 200.23659,34.0297995 C200.495187,35.0700509 200.960142,36.0212769 201.791133,36.7660236 C202.216446,37.1617755 202.784395,37.4782274 203.567223,37.4920675 L203.61909,37.4920675 L203.662437,37.489075 C205.404443,37.4049123 207.012334,36.6092939 208.379042,35.354334 C208.427205,35.4433594 208.475738,35.533133 208.527976,35.6202882 C209.052208,36.5011915 209.84541,37.2414495 210.793473,37.660767 C211.350307,37.9233547 211.981608,38.0845731 212.629581,38.0830769 C212.634398,38.0834509 212.639214,38.0834509 212.644401,38.0834509 C213.49725,38.0834509 214.323795,37.799916 215.030304,37.3603995 C215.890563,36.8094142 216.694509,36.1241425 217.45622,35.3109434 C218.150133,37.0746203 219.19341,38.573091 220.580864,39.6653363 C221.971654,40.7680552 223.672166,41.4312575 225.54384,41.6822495 L225.603858,41.6904788 L225.66684,41.6942193 C226.379648,41.7428467 227.091343,41.7944665 227.851943,41.7948406 L227.871949,41.7948406 C231.092178,41.7952146 234.211636,40.9775269 237.102877,39.3283113 C239.971518,37.6985467 242.381503,35.4889943 244.176117,32.6573858 C245.36203,30.8469519 245.963693,28.7870222 245.956654,26.657892 C245.957395,24.8814972 245.555051,23.0609637 244.744066,21.2568887 L244.744066,21.2568887 Z M234.694003,22.3386604 C236.145922,21.5740887 237.208464,21.278584 237.813831,21.2898057 L237.869404,21.2898057 L237.928681,21.2868132 C237.940166,21.285317 237.962395,21.2849429 237.988699,21.2849429 C238.301386,21.2898057 238.485515,21.3563877 238.696319,21.4895519 C239.001967,21.6851835 239.363928,22.1355476 239.621783,22.8043608 C239.882232,23.4641967 240.028943,24.3028316 240.02672,25.0756325 C240.02709,25.1915901 240.024867,25.3015627 240.01894,25.4036802 L240.017087,25.4493151 L240.017087,25.4975684 C240.013012,27.173342 239.624747,28.7058519 238.775232,30.2252698 C237.648596,32.2350759 236.261512,33.7918995 234.585822,34.9787811 C232.748973,36.2775057 230.921756,36.8561712 228.904482,36.8632783 C227.45812,36.8565453 226.360753,36.5213906 225.403057,35.8810057 C224.450548,35.2365061 223.599551,34.2351566 222.867479,32.7400524 L222.850066,32.7041429 L222.836358,32.6787071 C222.700762,32.4314557 222.579985,31.9792212 222.580726,31.2520552 C222.580726,30.8996939 222.612217,30.5054382 222.680386,30.0730288 C224.694325,29.6458561 226.559331,28.4032401 228.276145,26.6208604 C228.782593,26.0956849 229.231617,25.547692 229.615066,24.9795 L234.694003,22.3386604 L234.694003,22.3386604 Z M198.891741,26.3253557 C199.534898,25.4444524 200.153232,24.7487071 200.746744,24.2111877 C200.727108,24.3753986 200.708955,24.5392354 200.691172,24.7041943 C199.603807,26.8022778 198.79912,28.1735693 198.420488,28.6878972 C198.082979,29.1539717 197.74584,29.5515939 197.407961,29.8874967 C197.504286,28.7911368 197.957015,27.6023849 198.887666,26.3328368 L197.387955,25.2080486 L197.387955,25.2080486 L198.891741,26.3253557 L198.891741,26.3253557 Z M209.758717,18.4716632 C209.005527,21.3664873 208.472033,23.6306519 208.157864,25.2959519 C208.039681,25.8128981 207.934834,26.3100193 207.843325,26.7906821 C207.386521,28.0520009 206.804123,29.2459896 206.113916,30.3296316 C205.721946,30.9486953 205.343313,31.4181363 205.007286,31.7510467 C205.053226,30.7938358 205.183265,29.8938557 205.372581,29.1711783 L205.385548,29.1218028 L205.392958,29.0866415 C206.16319,25.475125 207.514337,22.1086156 209.463072,18.9515778 L209.758717,18.4716632 L209.758717,18.4716632 Z M172.560479,31.0915849 C172.440072,30.7182764 172.385982,30.3569377 172.3845,29.9948509 C172.386352,29.3638175 172.483419,28.7380208 172.68459,28.1088575 C172.785361,28.1642179 172.888355,28.2158377 172.992461,28.263717 C173.401473,28.455234 173.82938,28.6022382 174.277292,28.7122108 C173.845681,29.6941094 173.279214,30.4676585 172.560479,31.0915849 L172.560479,31.0915849 Z M158.749654,26.1746108 C158.678892,26.3391958 158.611464,26.5071472 158.548111,26.677717 C158.346199,27.213366 158.220235,27.7703363 158.176148,28.3265585 C157.842343,27.5799415 157.527804,26.9429231 157.261057,26.4252288 C157.761208,26.3691203 158.258395,26.2849575 158.749654,26.1746108 L158.749654,26.1746108 Z M146.649343,15.0030363 C146.638599,15.0610151 146.550425,15.2678684 146.349994,15.5528995 L146.286271,15.4563929 C146.234033,15.377841 146.183648,15.3015335 146.134744,15.2270962 C146.272934,15.1174976 146.436687,15.0078991 146.63119,14.8994226 C146.641934,14.941317 146.64712,14.9764783 146.648602,14.9933108 C146.648602,14.9955552 146.648602,14.9985476 146.649343,15.0030363 L146.649343,15.0030363 Z M146.610813,10.3841854 C148.125343,9.85826179 149.789919,9.58744481 151.677895,9.5866967 C153.133518,9.58856698 154.433169,9.73295283 155.595741,10.0075104 C153.808536,11.048884 152.307343,12.4212976 151.126247,14.0723835 C150.904699,13.2625509 150.49013,12.5185524 149.908843,11.9264208 C149.053771,11.0432731 147.878232,10.5151052 146.610813,10.3841854 L146.610813,10.3841854 Z M161.354512,15.410384 C161.271154,17.0581033 160.550196,18.5756509 158.788925,20.2469358 C157.441111,21.503766 156.24038,22.0027575 154.838476,22.0158495 C154.791054,22.0154755 154.743262,22.0147274 154.69547,22.0132311 L154.831066,21.6945349 C155.992898,18.9238976 157.234753,16.5695854 158.519214,14.7374561 L158.528105,14.7228679 L158.536627,14.7116462 C159.03122,13.9856024 159.69253,13.4159142 160.652449,12.9603132 C161.135187,13.6616693 161.340434,14.3970646 161.354883,15.3056481 C161.354883,15.3482906 161.354883,15.3830778 161.354512,15.410384 L161.354512,15.410384 Z M163.080217,29.1109552 C163.349557,28.7058519 163.59741,28.4881509 163.849708,28.3448873 C164.110527,28.2023717 164.41247,28.1125981 164.897801,28.1096057 C165.422404,28.1137203 165.763617,28.2199524 166.075563,28.4099731 L166.098904,28.4241873 L166.133358,28.4443863 C166.44975,28.6280481 166.601277,28.7952514 166.698714,28.9583401 C166.793187,29.1240472 166.858762,29.3151901 166.861355,29.6574519 C166.868024,29.869916 166.741319,30.3935953 166.108166,31.1432047 C165.605422,31.7125189 165.176404,32.0551547 164.705151,32.2477939 L164.705151,31.8333392 C164.695148,31.7761085 164.729973,31.7143892 164.656988,31.3358439 L164.656988,30.3288835 L163.625196,29.8078226 C163.255084,29.6237868 163.040205,29.4517208 162.955735,29.3653137 C162.976852,29.308083 163.016123,29.2216759 163.080217,29.1109552 L163.080217,29.1109552 Z M178.867193,41.0886217 C178.868304,41.0878736 178.868675,41.0878736 178.870157,41.0863774 L179.821925,42.2152802 C180.159063,41.923516 180.578449,41.612675 181.079711,41.2902382 C181.06378,41.3257736 181.047108,41.361309 181.031178,41.3975925 C179.89528,43.9086344 178.855337,45.749367 178.019901,46.8588189 C177.606813,47.4142929 177.242259,47.7804943 177.011078,47.9548047 C177.001075,47.9622858 176.991072,47.9690189 176.98181,47.9761259 C176.98181,47.963408 176.981069,47.950316 176.981069,47.93685 C176.981069,47.7793722 177.007003,47.5197769 177.08147,47.1842481 L177.090732,47.137491 L177.097401,47.1038259 C177.467883,45.0278118 178.376675,43.4474226 179.809699,42.2250057 L178.867193,41.0886217 L178.867193,41.0886217 Z M185.466217,27.1523948 C185.373226,27.2597491 185.279494,27.3682255 185.183539,27.4770759 C185.406569,26.5464231 185.618485,25.6153962 185.819657,24.6854915 C185.708883,25.5005608 185.590328,26.3231113 185.466217,27.1523948 L185.466217,27.1523948 Z" id="Shape" fill="#000000"></path>
                    </g>
                    <g id="Group" transform="translate(65.204819, 0.000000)" fill="#000000">
                        <path d="M75.8865542,40.8204231 C75.7127982,38.7488976 74.241244,37.0850939 71.9612982,35.9580613 C69.5883614,34.7636986 66.2380934,33.9572325 61.8464006,33.4559967 C60.690497,32.8178561 59.6731536,32.1411877 58.7921476,31.4304802 C58.6928584,31.3511802 58.5806024,31.2928274 58.4613072,31.2591623 L58.414997,31.2221307 C57.902991,30.8959533 57.3650512,30.5551877 56.8126627,30.2061929 C57.2857681,29.2830212 57.6844066,28.3011226 57.9922771,27.2567566 C58.8440151,24.3641769 58.7762169,21.5755849 58.0319187,19.0106788 C60.2648133,18.2214193 62.2116958,17.6842741 63.8533012,17.40635 C63.9837108,17.4927571 64.155244,17.6139514 64.3527108,17.7646962 L64.4386627,17.8219269 C66.1006446,18.8116807 67.3799187,19.5081741 68.3131627,19.9286137 C69.5298253,20.5304708 70.4501024,20.882458 71.3255512,20.8966722 C72.6381687,20.8996646 73.8151898,20.5566547 74.7028645,19.7872203 L74.8540211,19.6192689 C75.4542018,18.7780156 75.7613313,17.7740476 75.757256,16.7150934 C75.7250241,14.8593986 74.5998705,12.8686693 72.5811145,10.3823151 C72.6040843,10.1724693 72.6396506,9.86798726 72.6870723,9.49430472 C72.9767892,7.71529151 73.1305392,6.54973113 73.1349849,5.82667972 C73.1323916,4.43593726 72.8752771,3.25578868 72.2313795,2.33747972 L72.1309789,2.21852972 C71.4626295,1.54822028 70.5523554,1.15134623 69.4679548,0.93065283 C69.3456958,0.906339151 69.2238072,0.906339151 69.1022892,0.93065283 C67.8674729,1.19249245 66.4626054,1.99147736 64.6568765,3.29730896 L64.5412861,3.39755613 C64.5412861,3.39755613 64.5364699,3.40354104 64.503497,3.42448821 C64.4708946,3.4469316 64.4190271,3.4779783 64.3486355,3.51276557 L64.1589488,3.64031887 C61.5040753,5.93814858 59.3460181,8.0093 57.677738,9.86948349 C56.8704578,10.1545146 56.1346807,10.4836844 55.4700361,10.8618557 C55.2673825,10.9430259 55.1073343,11.0025009 55.0006355,11.0380363 C54.9524729,11.0537467 54.9157952,11.0649684 54.8972711,11.0698311 C54.806503,11.0806788 54.7153645,11.1049925 54.6338584,11.1409019 C54.2589307,11.3047387 53.8928946,11.4644608 53.5279699,11.6245571 C51.8582078,9.95252406 49.877241,8.54307877 47.7317801,7.47776557 C46.5592048,6.92266557 45.345506,6.47679009 44.1332892,6.02492972 C43.982503,5.83864953 43.8154157,5.66209481 43.6116506,5.50536509 C42.2931054,4.4916717 40.8878675,3.92198349 39.3963072,3.78283443 C38.0340452,2.81066132 36.8114548,1.58076321 35.6288765,0.461585849 C34.9957229,-0.13765283 34.2280843,0.937011792 34.1358343,1.526525 C33.9605964,2.65019104 33.5871506,3.44618349 33.0451355,4.07422453 C32.8836054,4.09292736 32.7265211,4.11013396 32.5605452,4.12995896 L32.1133735,4.19018208 C28.8909217,4.62146934 26.392762,5.13504906 24.6163012,5.73054717 C22.4956627,6.44200283 20.5936084,8.01341462 19.9626777,8.5730033 C20.0967922,8.4963217 19.5029096,9.33944528 19.1891114,10.0722222 C19.0157259,10.0078844 18.8386355,9.93793585 18.66525,9.87472028 C15.7188072,6.62155 13.582238,4.41311981 12.1821867,3.19930613 C10.3405211,1.66717028 8.76375,0.786266981 7.20105723,0.765319811 C5.81730723,0.757838679 4.58767771,1.14910189 3.85227108,2.14297028 C3.0175753,3.07474528 2.78306024,4.40077594 2.76861145,6.12181038 C2.76935241,7.39622123 2.98793675,8.84045377 3.40954518,10.4705925 C1.73867169,12.6330137 0.727996988,14.3173906 0.490888554,15.8409231 C0.363813253,16.005508 0.292680723,16.2112392 0.292680723,16.4210849 C0.292680723,17.1138377 0.404936747,17.7519783 0.682798193,18.3153075 C0.868039157,18.6968453 1.13775,19.0323741 1.46562651,19.2953358 C1.50045181,19.3484519 1.54046386,19.3985755 1.58603313,19.4445844 C2.41146687,20.2390807 3.55662651,20.4410712 5.01669578,20.4545373 C6.34302108,20.453041 7.47669578,20.215141 8.3721506,19.6140321 C9.26019578,19.2440901 10.3123645,18.5236571 11.6846295,17.4235566 C12.9409337,17.6521052 14.288747,17.9786566 15.7206596,18.3972259 C14.1779729,22.6876552 14.5365994,27.4684726 17.1636867,31.5673849 C16.4838524,32.0499179 15.8099458,32.5361915 15.1464127,33.0299462 C9.59844578,33.8132208 5.76358735,34.6297863 3.49512651,35.5611873 C3.31803614,35.6345024 3.17095482,35.7594373 3.06981325,35.9142967 C2.23956325,36.3575538 1.55824699,36.9698844 1.08810542,37.7381967 C0.601292169,38.5297005 0.348623494,39.458483 0.300460843,40.4736726 C0.200430723,40.6266618 0.14596988,40.806583 0.14596988,40.9932373 C0.114478916,42.6267425 1.02253012,44.0552646 2.50075301,44.8071184 C3.8559759,45.5226887 5.64503313,45.8514844 7.92090361,45.9027302 C8.91712952,47.3054425 9.89483133,48.3954434 10.8940211,49.1719849 C11.7735452,49.8572566 12.6941928,50.3050024 13.6400331,50.4336778 C13.8008223,50.5533759 13.9960663,50.6188358 14.1968675,50.6188358 C14.2205783,50.6188358 14.2442892,50.6184618 14.2676295,50.6162175 C15.877003,50.5032524 17.2251867,49.4809557 18.1313855,47.9151547 C18.9983133,46.4406236 19.5959006,44.4581236 19.998244,41.9328675 C21.4594247,40.594867 22.969509,39.3021274 24.5192349,38.0456712 C25.5391717,38.5686024 26.6061596,39.0212108 27.7101958,39.3978858 C27.9806476,39.6458854 28.2340572,39.8751821 28.463756,40.079417 C28.4704247,40.0883943 28.473759,40.099242 28.4800572,40.1085934 C29.1558163,41.0874995 30.0053313,41.7925962 31.0311958,42.2257538 C32.0570602,42.6581632 33.5315783,43.1017943 35.4580843,43.5588915 L35.7659548,43.6292142 C37.9903283,44.1311981 39.7553042,44.4117406 41.0638464,44.4723377 C42.3712771,44.5314387 43.6483283,44.3118675 44.8946295,43.8125019 C45.4722108,43.5667467 45.8134247,43.2020415 45.9208645,42.7172642 C45.9768072,42.4629057 45.9764367,42.0559321 45.9164187,41.4899844 C45.837506,40.8750354 45.8278735,40.4310302 45.888262,40.1572208 C45.9086386,40.0655769 45.9360542,39.9780476 45.9686566,39.8938849 C46.2246596,39.7700722 46.4588042,39.6514962 46.6699789,39.5385311 L47.1367861,39.2751953 C47.1745753,39.2523778 47.2190331,39.2280642 47.2549699,39.2056208 C47.488744,39.0444024 47.7328916,38.7825627 47.9866717,38.4302014 C48.7806145,38.057267 49.5441777,37.6375755 50.2777319,37.178608 C51.8989608,38.3856887 53.5753916,39.6802986 55.3103584,41.0661783 C55.5059729,41.5625514 55.6526837,41.9089278 55.7708675,42.1501943 C55.912762,42.4359736 56.015756,42.657041 56.0761446,42.7995566 C56.0898524,42.8317255 56.1013373,42.8597797 56.1102289,42.8822231 L56.1102289,42.9061627 C56.1102289,43.0180057 56.1306054,43.1343373 56.1698765,43.2394472 C57.0182801,45.5017415 57.892247,47.2310052 58.8640211,48.4612774 C59.6801928,49.4985363 60.6341837,50.2249542 61.7163614,50.4187156 C61.9186446,50.5791858 62.1761295,50.646142 62.431762,50.606492 C63.3209187,50.460984 64.1800663,49.9833137 65.148506,49.2497887 C66.0091355,48.5918231 66.9483072,47.7135382 67.9867681,46.6067047 C70.3637801,46.198983 72.2161898,45.6049811 73.5773404,44.7300627 C74.8632831,43.9194821 75.7224307,42.7344708 75.8791446,41.3556981 C75.8947048,41.2864976 75.9032259,41.2150528 75.9032259,41.1417377 L75.9032259,41.1155538 L75.9032259,40.9921151 C75.9024849,40.9348844 75.8965572,40.8761575 75.8865542,40.8204231 L75.8865542,40.8204231 Z" id="Shape"></path>
                        <path id="Shape"></path>
                        <path id="Shape"></path>
                    </g>
                    <path d="M136.330681,37.6446825 C134.267467,36.59695 131.022416,35.7889877 126.664807,35.3098212 C126.547364,35.2963552 126.42844,35.2589495 126.324705,35.202467 C125.087295,34.5317835 123.978443,33.8106024 122.997407,33.0366792 C122.818834,32.9719675 122.668048,32.8732165 122.550976,32.770725 C121.658855,32.2029071 120.70153,31.5988057 119.68641,30.9625354 C121.096834,28.9052241 121.894482,26.4338321 121.744066,23.5352675 C121.641813,21.5546377 121.140551,19.7344783 120.338087,18.0841406 C123.767639,16.7330481 126.684813,15.8641146 129.102578,15.4904321 C129.290783,15.4605075 129.489361,15.4926764 129.659783,15.5790835 C129.947648,15.7268358 130.242922,15.9314448 130.636003,16.2247052 C132.247229,17.1837863 133.479452,17.848859 134.286361,18.2109458 L134.324892,18.2285264 C135.425223,18.7959703 136.24584,19.0263892 136.52963,19.0118009 C137.484361,19.0091825 138.136039,18.7922297 138.603587,18.4286467 C138.931464,17.9244184 139.089289,17.3861509 139.093364,16.7162156 C139.12819,15.7066368 138.203837,13.7645349 136.106539,11.2927689 C135.965015,11.1225731 135.886102,10.9056203 135.886102,10.6838047 C135.888696,10.5192198 135.902774,10.4159802 135.927967,10.1750877 C135.952789,9.94691321 135.990208,9.63794245 136.038741,9.24293868 L136.044669,9.20478491 C136.333274,7.46579575 136.474428,6.27928821 136.470723,5.82780189 C136.472946,4.72209057 136.261401,3.96051132 135.958346,3.49855142 C135.669741,3.23184906 135.197006,2.98609387 134.493831,2.82225708 C133.76287,3.01863679 132.53991,3.667625 131.004633,4.79016887 C130.846437,4.93567689 130.68009,5.04340519 130.500407,5.14103396 C127.836642,7.44971132 125.704148,9.51225943 124.109223,11.3129679 C124.000301,11.4356585 123.862852,11.5258061 123.709102,11.5785481 C122.883669,11.8572203 122.162711,12.1762906 121.545117,12.5331406 L121.428786,12.5899972 C121.175006,12.6913665 120.969018,12.7702925 120.793039,12.8293934 C120.665593,12.8656769 120.588904,12.9000901 120.462199,12.9236557 C119.480051,13.3523245 118.53347,13.7682755 117.622455,14.1707604 C115.883783,12.304592 113.724985,10.7788151 111.393172,9.61998774 C109.088404,8.52886462 106.477617,7.98498632 104.27288,6.69636132 C102.700184,5.7776783 101.330142,4.53955094 100.000482,3.28272075 C99.4017831,4.88929387 98.369991,6.17530047 96.7395,7.10931981 C94.7566807,8.2445816 92.6145542,8.94743396 90.5728283,9.94691321 C89.0294006,10.7032557 87.554512,11.6683217 86.2470813,12.8028354 C85.1578645,12.3719222 84.0782801,11.9552231 83.0187018,11.5706929 C82.8742139,11.5186991 82.74825,11.4334142 82.645256,11.3197009 C79.6450934,7.99882642 77.4636958,5.74962406 76.1803464,4.64017217 C74.5098434,3.22174953 73.1724036,2.63148821 72.4043946,2.65243538 C71.2851687,2.65991651 70.7827952,2.9427033 70.5419819,3.28646132 L70.4419518,3.40578538 C70.1626084,3.64742594 69.8254699,4.55301698 69.8402892,6.12218443 C69.8395482,7.275775 70.0636898,8.72225189 70.5360542,10.4294462 C70.6171898,10.7245769 70.5534669,11.0376623 70.3630392,11.2755623 C68.3516928,13.7477024 67.4655,15.6370623 67.5088464,16.421833 C67.5088464,16.5826774 67.4677229,16.7405292 67.3914036,16.8796783 C67.4243765,17.1332887 67.4843946,17.3292943 67.5562681,17.4733061 C67.6703765,17.6954958 67.7941175,17.8193085 68.0130723,17.934892 C68.1790482,18.0186807 68.3101988,18.146234 68.3994849,18.298475 C68.736994,18.4443571 69.3423614,18.5793915 70.2196627,18.569666 C71.3681566,18.5715363 72.1417229,18.3392472 72.5903765,18.0111995 L72.8045151,17.895616 C73.3769096,17.6876406 74.527997,16.9406495 76.0428976,15.6905524 C76.2488855,15.5203566 76.5215602,15.4481637 76.7842319,15.4930505 C78.6173765,15.8020212 80.606494,16.3036311 82.7467681,16.9874066 C81.0992349,19.8601613 80.5172078,23.2349 81.7727711,26.8191104 C82.4752048,28.82555 83.5696084,30.5697759 84.9340934,32.0652542 C83.6848283,32.9222179 82.4629789,33.7967623 81.2681747,34.6900094 C81.1403584,34.7842717 80.9966114,34.8441208 80.8402681,34.8665642 C75.5883163,35.5929821 71.8631205,36.3826156 69.7936084,37.1546684 C69.7006175,37.2781071 69.576506,37.3791024 69.4301657,37.4445623 C68.6940181,37.7774726 68.2090572,38.2005307 67.8789578,38.7339354 C67.5507108,39.2692104 67.3647289,39.9496193 67.363247,40.8473552 C67.363247,41.0138104 67.3199006,41.1754028 67.2398765,41.3167962 C67.3310151,42.134484 67.6903825,42.6327274 68.5784277,43.1414443 C69.5857681,43.6886892 71.3196235,44.0298288 73.7159006,44.024592 C73.9611596,44.024592 74.2027139,44.1255873 74.3757289,44.3006458 C74.5076205,44.434184 74.5969066,44.6066241 74.6321024,44.791034 C75.5590482,46.1006061 76.4404247,47.0630538 77.2358494,47.6787509 C78.0783253,48.3322278 78.7926145,48.5877085 79.3994639,48.5865863 C79.5254277,48.5865863 79.6502801,48.6135184 79.7651295,48.6625198 C80.4868283,48.4781099 81.1062741,47.9787443 81.7309066,46.9500887 C82.4577922,45.7276717 83.0546386,43.7814552 83.4295663,41.1544557 C83.485509,40.7676811 83.7674458,40.4676877 84.1242199,40.3764179 C85.8895663,38.7668524 87.7238223,37.2238689 89.6143916,35.7325052 C90.4783554,36.2172825 91.3793675,36.6466995 92.3074247,37.0177637 C93.4051627,37.5201217 94.5973735,37.9297137 95.8888735,38.2323255 L95.8888735,39.1251986 C95.8888735,39.13455 95.8918373,39.1442755 95.8922078,39.1540009 L95.8922078,40.5776604 C95.8922078,41.2401146 97.1073886,41.7761377 98.6070994,41.7761377 C100.10681,41.7761377 101.322361,41.2397406 101.322361,40.5776604 L101.322361,38.9190934 C101.535018,38.9243302 101.747675,38.9314373 101.961813,38.9314373 C102.234488,38.9314373 102.506051,38.9239561 102.777244,38.9168491 L102.777244,39.312975 C102.777244,39.3200821 102.779837,39.3268151 102.780578,39.3335481 L102.780578,40.7654368 C102.780578,41.3725307 103.566741,41.8647892 104.536663,41.8647892 C105.505843,41.8647892 106.292747,41.3729047 106.292747,40.7654368 L106.292747,38.5989009 C106.576907,38.5555104 106.859584,38.5087533 107.139669,38.4563854 L107.139669,39.8860297 C107.139669,40.4920014 107.925831,40.9835118 108.895753,40.9835118 C109.865304,40.9835118 110.652208,40.4923755 110.652208,39.8860297 L110.652208,37.5410689 C111.613979,37.2160137 112.439413,36.8023071 113.156295,36.3171557 C114.003217,35.9038231 114.816795,35.4377486 115.586286,34.9222986 C117.620973,36.4125401 119.743464,38.0434269 121.953389,39.814959 C122.164563,39.9851547 122.294232,40.2436278 122.305346,40.5163151 C122.46206,40.9079524 122.580985,41.183258 122.645078,41.3104373 C122.871813,41.7727712 123.014078,42.075009 123.105217,42.3450778 C123.132262,42.4442028 123.16894,42.5119071 123.178943,42.7322264 C123.963623,44.8056222 124.767199,46.3340175 125.525946,47.2867396 C126.316184,48.2764934 126.96638,48.5903269 127.493575,48.5873344 C127.585825,48.5873344 127.676964,48.6019226 127.765139,48.6288547 C128.142289,48.4811024 128.644292,48.1968193 129.224467,47.7490736 C130.056569,47.1131774 131.057241,46.166066 132.199437,44.917091 C132.459515,44.6331821 132.868157,44.5374236 133.226042,44.6784429 C133.23197,44.6806873 133.237527,44.6833057 133.243455,44.6859241 C135.291108,44.3099972 136.811937,43.7706075 137.773337,43.1448108 C138.776232,42.4752495 139.160422,41.844216 139.231184,41.050842 C139.145232,39.7783014 138.349807,38.6886745 136.330681,37.6446825 L136.330681,37.6446825 Z M114.311828,31.6003019 C111.18459,31.5928208 109.356633,26.671358 106.10269,27.3143613 C102.177063,28.0905288 98.9483133,31.0373467 94.9311777,31.6201269 C91.6198102,32.1004156 86.9980482,31.547934 86.9020934,27.2866811 C86.9117259,27.1497764 86.9217289,27.0128717 86.9313614,26.8755929 C87.4533705,23.974784 89.7451717,21.0687382 92.5156355,20.1104052 C97.13925,18.5113132 100.879636,20.5989231 104.883063,22.7112208 C106.284596,23.4511047 107.623148,24.0499693 109.190657,23.4555934 C111.017873,22.7620925 112.643919,21.6646104 114.412229,20.8454264 C115.736331,20.2327217 117.626901,19.4973264 118.84875,20.7762259 C119.808298,21.7801939 119.995762,23.109591 119.703081,24.4404844 C119.197744,26.7394363 117.189732,31.607783 114.311828,31.6003019 L114.311828,31.6003019 Z" id="Shape" fill="#FFFFFF"></path>
                    <path d="M10.4175813,30.5409736 C10.0826657,31.4117774 9.93854819,32.1849524 9.93854819,32.9106222 C9.93854819,33.5390373 10.0826657,34.1195731 10.321997,34.6514816 C10.6576536,35.3285241 11.1359458,35.6674193 11.7113042,35.6674193 C12.7171627,35.6674193 14.1060994,34.7966156 15.9744398,33.1040094 C16.2137711,31.8950585 16.4531024,30.6861075 16.645012,29.4771566 L17.1714669,25.7047958 C14.2494759,25.5117825 11.4234398,27.6880439 10.4175813,30.5409736 L10.4175813,30.5409736 Z" id="Shape"></path>
                    <path d="M4.71734639,48.4829726 C4.62176205,48.9180005 4.57396988,49.3541505 4.57396988,49.6919236 C4.57396988,50.9977552 5.14858735,51.6751717 6.34635542,51.6751717 C7.83124699,51.6261703 9.7948012,49.0635085 12.1895964,43.8888094 C12.8605392,42.4868453 13.5314819,40.8903717 14.1535211,39.1008849 C11.3752771,40.2133292 9.36356024,41.3740269 8.07057831,42.4868453 C6.29856325,44.0339434 5.19675,46.0168175 4.71734639,48.4829726 L4.71734639,48.4829726 Z" id="Shape"></path>
                    <path d="M57.1657319,13.1312571 C57.5010181,11.2445156 57.4532259,10.2775792 57.0219849,10.2775792 C56.446997,10.2775792 55.7286325,11.3417703 54.8183584,13.5180316 C54.1003645,15.258891 53.4297922,17.3382717 52.9025964,19.7082943 L51.4180753,26.043691 C53.1900904,24.3507108 54.5316054,22.4160901 55.441509,20.1436962 C56.0642892,18.5475967 56.6389066,16.1779481 57.1657319,13.1312571 L57.1657319,13.1312571 Z" id="Shape"></path>
                    <path d="M43.9465663,26.1401976 C44.8564699,25.0277533 45.3351325,23.9639363 45.3351325,22.9004934 C45.3351325,22.2234509 45.1921265,21.6907943 44.9520542,21.3530212 C44.8083072,21.2078873 44.6645602,21.1588858 44.5208133,21.1588858 C43.8984036,21.1588858 43.0362922,22.078317 41.8385241,23.9639363 C40.5933343,25.9954377 39.7786446,27.5915373 39.4437289,28.7032335 C41.2161145,28.4612189 42.701006,27.5915373 43.9465663,26.1401976 L43.9465663,26.1401976 Z" id="Shape"></path>
                    <path d="M225.811328,29.8422358 C226.721232,28.7301656 227.152102,27.6659745 227.152102,26.6014094 C227.152102,26.2146349 227.10431,25.8282344 227.008355,25.4893392 C226.864238,25.1508179 226.67381,24.86055 226.337413,24.86055 C225.762425,24.86055 224.901054,25.7796071 223.703286,27.6656005 C222.409934,29.7939825 221.595985,31.3889599 221.259958,32.4048976 C223.033084,32.1636311 224.565398,31.2932014 225.811328,29.8422358 L225.811328,29.8422358 Z" id="Shape"></path>
                    <path d="M31.5406084,26.1401976 C32.4508825,25.0277533 32.9295452,23.9639363 32.9295452,22.9004934 C32.9295452,22.2234509 32.7857982,21.6907943 32.5464669,21.3530212 C32.4027199,21.2078873 32.2589729,21.1588858 32.1152259,21.1588858 C31.4928163,21.1588858 30.6303343,22.078317 29.4329367,23.9639363 C28.187747,25.9954377 27.3730572,27.5915373 27.0377711,28.7032335 C28.8105271,28.4612189 30.2954187,27.5915373 31.5406084,26.1401976 L31.5406084,26.1401976 Z" id="Shape"></path>
                    <path d="M174.894886,52.1853849 C174.798931,52.6200387 174.751139,53.0071873 174.751139,53.3464566 C174.751139,54.7001675 175.37466,55.377584 176.571316,55.377584 C178.056949,55.3293307 180.019392,52.7659208 182.366765,47.5919698 C183.134033,45.8989896 183.804976,44.3028901 184.331431,42.8040453 C181.552816,43.9164896 179.541099,45.0768132 178.247747,46.1888835 C176.475361,47.6873542 175.325756,49.7188557 174.894886,52.1853849 L174.894886,52.1853849 Z" id="Shape"></path>
                    <path d="M197.024883,30.616159 C195.779693,32.3091392 195.156542,34.0496245 195.156542,35.7429788 C195.156542,36.6126604 195.348452,37.4830901 195.683738,38.4017731 C197.120096,37.8702387 198.41419,36.8064217 199.563425,35.2106962 C200.08988,34.4854005 200.952732,32.9858075 202.149759,30.6647863 C202.293136,29.1655675 202.532837,27.7146019 202.867753,26.2640104 C200.808985,26.6017835 198.892482,28.0534972 197.024883,30.616159 L197.024883,30.616159 Z" id="Shape"></path>
                    <path d="M174.511807,27.7628552 C174.224313,28.4402717 174.080937,29.0204335 174.080937,29.5037146 C174.080937,30.7612929 174.894886,31.3889599 176.523895,31.3889599 C176.619849,30.6640382 176.667642,29.8901151 176.667642,29.0679387 C176.667642,28.3908962 176.619849,27.6652264 176.571687,26.8916774 C175.852952,27.0375594 175.134958,27.3278274 174.511807,27.7628552 L174.511807,27.7628552 Z" id="Shape"></path>
                    <path d="M218.57841,11.7064755 C218.530988,11.7064755 218.38687,11.8041042 218.243494,12.0457448 C216.661907,14.5119 215.274081,17.994367 214.124105,22.4916495 C213.310157,25.5383406 212.639214,27.9558684 212.208343,29.6974759 C215.417828,26.2640104 217.573292,20.8472967 218.674735,13.3994557 C218.818852,12.2870113 218.818852,11.7064755 218.57841,11.7064755 L218.57841,11.7064755 Z" id="Shape"></path>
                    <path d="M171.829889,30.3745184 C170.727705,31.9698698 170.153087,33.66285 170.153087,35.4040835 C170.153087,36.7099151 170.632491,37.9674934 171.542395,39.1764443 C174.081307,37.918866 175.709575,35.6939774 176.380518,32.5021524 C173.936819,32.5021524 172.452669,31.7772307 171.829889,30.3745184 L171.829889,30.3745184 Z" id="Shape"></path>
                    <path d="M68.9011175,20.7721113 C67.8474669,20.7721113 66.6496988,20.9658726 65.3085542,21.3036458 C65.2125994,21.4012745 65.0214307,21.7394217 64.6861446,22.3685849 C66.1706657,21.5942877 67.4640181,21.2075132 68.5658313,21.2075132 C69.2841958,21.2075132 69.9069759,21.3526472 70.4341717,21.6429151 C72.1580241,22.706358 73.0208765,24.4962189 73.0208765,27.0588807 C73.0208765,30.7826142 71.2003283,34.6518557 68.182753,36.7794896 C64.8776837,39.1495123 62.0998102,40.2133292 59.9443464,39.9230613 C55.9687048,39.3911528 53.5739096,36.5382231 53.4301627,32.4752203 C53.3823705,30.6857335 53.7169157,29.4281552 54.5316054,28.8001142 C57.0223554,28.2682057 58.9866506,27.1561354 60.4711717,25.5117825 C61.6681988,24.1576976 62.2913494,23.1911354 62.2913494,22.5615981 C62.2913494,22.0296896 61.8601084,21.7394217 61.0457892,21.6907943 C59.2256114,21.5946618 57.0223554,22.3685849 54.4360211,24.0129377 C56.160244,21.4016486 57.4535964,18.4997175 58.3157078,15.2592651 C58.6032018,14.1950741 58.7469488,13.2281377 58.7469488,12.357334 C58.7469488,10.5199679 58.1241687,9.020375 56.9267711,7.90830472 C56.6874398,7.66629009 56.4003163,7.52153019 56.1128223,7.52153019 C55.298503,7.52153019 54.4363916,8.53671981 53.526488,10.6168486 C52.376512,13.2771392 51.3228614,16.3717094 50.3166325,19.8534283 C49.6456898,22.9004934 49.2155602,25.1728873 48.975488,26.7207335 C48.7835783,27.5915373 48.3530783,28.8969948 47.7299277,30.589975 C47.3672259,31.5834693 47.0478705,32.3869429 46.7618584,33.0052585 C46.3887831,33.6078637 45.9923675,34.1577269 45.5755753,34.6518557 C45.192497,35.1358849 44.7130934,35.5709127 44.0906837,35.9090599 C43.0370331,36.4895958 42.126759,36.7794896 41.3606024,36.7794896 C40.4503283,36.7794896 39.636009,36.2958344 39.0132289,35.2806448 C38.6779428,34.700109 38.4864036,33.9748132 38.4864036,33.0557561 C38.4864036,32.1849524 38.6301506,31.1701368 38.9650663,30.0573184 C40.8808283,30.0573184 42.7965904,29.0417547 44.7608855,27.0106274 C46.3413614,25.4137797 47.1078886,23.7698009 47.1078886,22.1744495 C47.1078886,21.7390476 47.0600964,21.3526472 46.9163494,20.9168712 C46.3895241,18.6923566 45.2877108,17.8223009 43.6590723,18.3542094 C41.5991928,19.0316259 39.8753404,20.6266033 38.4860331,23.1907613 C37.1419247,25.7680113 36.3494639,27.9177146 36.0553012,29.6499708 C36.0360361,29.6413675 36.0138072,29.6301458 35.9952831,29.6222906 C35.228756,31.6534179 34.2706898,33.3463981 33.1688765,34.6518557 C32.7857982,35.1358849 32.3071355,35.5709127 31.6839849,35.9090599 C30.6303343,36.4895958 29.7204307,36.7794896 28.9539036,36.7794896 C28.044,36.7794896 27.2296807,36.2958344 26.6072711,35.2806448 C26.2719849,34.700109 26.0800753,33.9748132 26.0800753,33.0557561 C26.0800753,32.1849524 26.2238223,31.1701368 26.5594789,30.0573184 C28.4756114,30.0573184 30.391744,29.0417547 32.3549277,27.0106274 C33.9357741,25.4137797 34.7019307,23.7698009 34.7019307,22.1744495 C34.7019307,21.7390476 34.6541386,21.3526472 34.5100211,20.9168712 C33.9831958,18.6923566 32.8813825,17.8223009 31.2531145,18.3542094 C29.1932349,19.0316259 27.469012,20.6266033 26.0797048,23.1907613 C24.8093223,25.6281142 24.0272349,27.6861736 23.697506,29.3679321 C23.0806536,30.9303665 22.3267229,32.3536519 21.3860693,33.636666 C20.57175,34.5063476 19.4221446,35.2810189 18.0332078,35.9090599 C19.6133133,29.38065 20.715497,24.4472175 21.3860693,21.1585118 C20.715497,21.3526472 20.0927169,21.5456604 19.5180994,21.6904203 L17.6975512,22.2709561 C17.649759,22.4647175 17.6019669,22.6098514 17.6019669,22.7553594 C17.1703554,22.5129708 16.7391145,22.4160901 16.2126596,22.4160901 C14.6318133,22.4160901 12.8597982,23.4320278 10.9440361,25.4141538 C8.30916867,28.1230717 7.2077259,30.7343608 7.54264157,33.2487693 C7.83013554,35.3285241 8.97974096,36.3927151 11.03925,36.3927151 C12.1888554,36.3927151 13.3866235,36.0538198 14.6796054,35.4254047 C15.1108464,35.183016 15.3979699,35.0378821 15.5420873,34.8927481 C15.3031265,35.6670453 15.0634247,36.5853542 14.7281386,37.601666 C12.7164217,38.519975 10.7043343,39.3907788 8.74078012,40.3090877 C6.77648494,41.4215321 5.14784639,42.8724976 3.85523494,44.7588651 C1.98689458,47.4662868 1.31595181,49.5946689 1.74756325,51.1425151 C2.17843373,52.4962259 2.84900602,53.2215217 3.75928012,53.3662816 C4.66955422,53.4635363 5.67504217,53.269775 6.68127108,52.7374925 C8.7411506,51.6740495 10.465003,50.2227099 11.9024729,48.4332231 C13.6741175,46.1608292 15.2068012,43.5005387 16.5005241,40.4055943 C16.5483163,40.1635797 16.6924337,39.6802986 16.9317651,39.0028821 C17.1710964,38.3258396 17.3626355,37.938691 17.5063825,37.8908118 C19.0872289,37.0690094 20.859244,36.246833 21.9610572,34.8916259 C22.4460181,34.4019858 22.9554307,33.7376613 23.4889247,32.9016448 C23.7553012,35.8297599 25.379494,38.083825 28.0436295,38.083825 C28.475241,38.083825 28.905741,38.0355717 29.3369819,37.9869443 C31.4442831,37.5515425 33.1210843,36.6332335 34.3659036,35.2791486 C34.8193735,34.7674392 35.3339729,34.0077302 35.905997,33.0254575 C36.2064578,35.8926014 37.8221295,38.083825 40.4492169,38.083825 C40.8800873,38.083825 41.3113283,38.0355717 41.7421988,37.9869443 C43.8498705,37.5515425 45.5259307,36.6332335 46.7718614,35.2791486 C46.8633705,35.176283 46.9578434,35.0599514 47.0537982,34.9372608 C47.0552801,34.938383 47.056762,34.9395052 47.0586145,34.9406274 C47.1219669,34.8560906 47.1838373,34.7659429 47.2468193,34.6795358 C47.3160994,34.5852736 47.385009,34.4913854 47.4568825,34.3881458 C48.6461295,32.6996542 49.7546114,30.6703972 50.7463916,28.363216 C53.9558765,25.5102863 56.1591325,24.0593208 57.4524849,24.0593208 C58.2664337,24.0593208 58.6498825,24.3495887 58.6498825,24.8814972 C58.6498825,25.4130316 57.9789398,25.9939415 56.6859578,26.7192373 C55.2970211,27.3476524 54.1955783,27.8316816 53.4764729,28.1219495 C52.2309127,28.7017373 51.5607108,29.2822731 51.4169639,29.862809 C50.6508072,33.1028873 51.8004127,36.6336075 54.2907922,38.8094948 C56.0150151,40.3087137 58.2182711,41.0830108 60.8527681,41.0830108 C62.6255241,41.0830108 64.6368705,40.647609 66.8882892,39.8258066 C69.1393373,39.0032561 71.0076777,37.3592774 72.4921988,34.9892547 C73.9292982,32.7161127 74.6954548,30.2985849 74.7917801,27.7830542 C74.886994,25.462033 74.2167922,23.5760396 72.7322711,22.0771948 C71.8231084,21.2075132 70.5293855,20.7721113 68.9011175,20.7721113 L68.9011175,20.7721113 Z M41.8388946,23.9635623 C43.0366627,22.0779429 43.8984036,21.1585118 44.5211837,21.1585118 C44.6649307,21.1585118 44.8086777,21.2075132 44.9524247,21.3526472 C45.1921265,21.6904203 45.335503,22.2230769 45.335503,22.9001193 C45.335503,23.9635623 44.8568404,25.0273792 43.9469367,26.1398236 C42.7013765,27.5911632 41.2164849,28.4612189 39.4444699,28.7028594 C39.7790151,27.5915373 40.5933343,25.9950637 41.8388946,23.9635623 L41.8388946,23.9635623 Z M29.4333072,23.9635623 C30.6307048,22.0779429 31.4931867,21.1585118 32.1155964,21.1585118 C32.2593434,21.1585118 32.4030904,21.2075132 32.5468373,21.3526472 C32.7861687,21.6904203 32.9299157,22.2230769 32.9299157,22.9001193 C32.9299157,23.9635623 32.451253,25.0273792 31.5409789,26.1398236 C30.2957892,27.5911632 28.8105271,28.4612189 27.038512,28.7028594 C27.3737982,27.5915373 28.1881175,25.9950637 29.4333072,23.9635623 L29.4333072,23.9635623 Z M12.1895964,43.8888094 C9.7948012,49.0635085 7.83087651,51.6265443 6.34635542,51.6751717 C5.14858735,51.6751717 4.57396988,50.9981292 4.57396988,49.6919236 C4.57396988,49.3541505 4.62176205,48.9180005 4.71734639,48.4829726 C5.19675,46.0168175 6.29856325,44.0335693 8.07057831,42.4868453 C9.36356024,41.3740269 11.3752771,40.2133292 14.1535211,39.1008849 C13.5314819,40.8903717 12.8605392,42.4868453 12.1895964,43.8888094 L12.1895964,43.8888094 Z M16.6446416,29.4771566 C16.4527319,30.6861075 16.2134006,31.8950585 15.9740693,33.1040094 C14.1057289,34.7966156 12.7167922,35.6674193 11.7109337,35.6674193 C11.1355753,35.6674193 10.6572831,35.3285241 10.3216265,34.6514816 C10.0822952,34.1195731 9.93817771,33.5386632 9.93817771,32.9106222 C9.93817771,32.1849524 10.0822952,31.4117774 10.4172108,30.5409736 C11.4230693,27.6880439 14.2491054,25.5117825 17.1710964,25.7047958 L16.6446416,29.4771566 L16.6446416,29.4771566 Z M51.4180753,26.043691 L52.9025964,19.7082943 C53.4297922,17.3386458 54.1003645,15.258891 54.8183584,13.5180316 C55.7286325,11.3417703 56.446997,10.2775792 57.0219849,10.2775792 C57.4528554,10.2775792 57.5010181,11.2445156 57.1657319,13.1312571 C56.6389066,16.1779481 56.0639187,18.5472226 55.441509,20.1433222 C54.5312349,22.4160901 53.1900904,24.3507108 51.4180753,26.043691 L51.4180753,26.043691 Z" id="Shape" fill="#FFFFFF"></path>
                    <path d="M174.655925,20.7507901 C175.61362,20.7507901 176.092283,20.2667608 176.092283,19.2519453 C176.092283,18.285009 175.61362,17.8006057 174.655925,17.8006057 C173.697858,17.8006057 173.218825,18.285009 173.218825,19.2519453 C173.218825,20.2667608 173.697858,20.7507901 174.655925,20.7507901 L174.655925,20.7507901 Z" id="Shape" fill="#FFFFFF"></path>
                    <path d="M179.73375,20.4122689 C180.691075,20.4122689 181.170108,19.9289877 181.170108,18.9616774 C181.170108,17.9457396 180.691075,17.4624585 179.73375,17.4624585 C178.775684,17.4624585 178.295539,17.9457396 178.295539,18.9616774 C178.295539,19.9286137 178.775684,20.4122689 179.73375,20.4122689 L179.73375,20.4122689 Z" id="Shape" fill="#FFFFFF"></path>
                    <path d="M242.67159,27.4239599 C241.808738,25.4414599 240.133048,24.4745236 237.641928,24.4745236 C236.636069,24.4745236 235.438672,24.6675368 234.098268,25.0064321 C233.858566,25.4897132 233.619235,25.8286085 233.475117,26.0702491 C235.055593,25.2480726 236.348575,24.8130448 237.450018,24.8130448 C240.37238,24.6675368 241.66462,28.1010024 241.522355,30.9064269 C241.522355,32.8885528 241.042952,34.7756684 240.036352,36.5647811 C238.791533,38.7892958 237.210687,40.5784085 235.294554,41.9324934 C233.187253,43.4313382 230.935464,44.157008 228.541039,44.157008 C225.044431,44.157008 222.505889,42.4157745 220.829828,38.982309 C220.494542,38.3535198 220.350795,37.5795967 220.350795,36.6605396 C220.350795,35.7901099 220.494542,34.8227995 220.781666,33.7589825 C222.697428,33.7589825 224.61356,32.7430448 226.577114,30.7122915 C228.110169,29.116566 228.875955,27.4725873 228.875955,25.8761137 C228.875955,24.2317608 228.445455,23.023184 227.535181,22.2006335 C227.008355,21.8628604 226.337783,21.814233 225.523834,22.0558736 C223.558798,22.6854108 221.834946,24.2807623 220.302262,26.8434241 C218.945557,29.1124514 218.094931,31.3347217 217.833741,33.5558698 C217.330997,34.8156925 216.673762,36.0710264 215.800536,37.2889547 C214.603509,39.0780675 213.405,40.1430066 212.303557,40.4807797 C210.915361,40.1430066 210.339633,38.8850542 210.531542,36.709167 C210.67566,34.5321575 211.059108,32.8878047 211.681518,31.6792278 C213.78919,29.9873698 215.704952,27.1333179 217.429545,23.1193165 C219.010021,19.3959571 219.921036,16.0589981 220.111464,13.157441 C220.255581,10.9325524 219.728386,9.23994623 218.57878,8.12750189 C218.387241,7.98274198 218.195331,7.88586132 218.004163,7.88586132 C217.237636,7.88586132 216.231777,9.38508019 215.034009,12.4317712 C213.357949,17.2193217 212.208343,20.8469226 211.489608,23.2648245 C210.579705,26.6982901 209.957295,29.3099533 209.621268,31.099066 C209.493081,31.653792 209.388235,32.175975 209.294503,32.6805774 C208.781386,34.1360316 208.116741,35.5106896 207.322428,36.7570462 C206.12503,38.6437877 204.880211,39.6107241 203.682443,39.7562321 C202.964078,39.2725769 202.676584,38.4013991 202.77328,37.1924481 C202.820331,36.0796297 202.964078,35.0165608 203.204151,34.0978778 C204.018099,30.2765156 205.454828,26.697916 207.514337,23.3617052 L206.31731,21.4274585 L204.01847,22.1045009 C203.108196,22.3457675 202.342039,22.6360354 201.718518,22.9753047 C199.084762,24.2803882 196.929298,26.4087703 195.252867,29.3582066 C194.591928,30.5260113 194.164762,31.7413212 193.959886,33.0318165 L193.86356,32.9850594 C193.336735,34.436025 192.570208,35.8869906 191.56472,37.3375821 C190.654075,38.2562651 189.551892,38.9819349 188.164066,39.6107241 C188.786476,37.482716 189.360723,35.2099481 189.887919,32.7430448 L191.515816,24.86055 L187.828039,25.9729943 C187.588337,28.3908962 187.252681,30.8574255 186.869602,33.372208 C185.911536,34.5321575 184.762301,35.7422307 183.468949,36.9994349 C182.702792,37.7726099 182.175967,38.1597585 181.888473,38.1597585 C181.696193,38.1597585 181.601349,37.9663712 181.648401,37.62785 C183.037708,32.7426708 184.09247,27.9076151 184.906048,23.0228099 C184.810093,22.9749307 184.714509,22.8773019 184.666346,22.7811693 L184.378482,22.5395288 C182.990286,23.5547184 181.935895,24.2803882 181.217901,24.7644175 C180.996723,26.7532764 180.711081,28.6766755 180.365051,30.5428439 C179.448479,30.9322368 178.628602,31.1828547 177.864669,31.2928274 C178.200325,29.6971019 178.392235,28.1492557 178.392235,26.6982901 C178.392235,25.0064321 178.152163,23.4099585 177.6735,21.9103656 C176.475732,22.3461415 175.134958,23.1196906 173.697858,24.2317608 C170.851446,26.439817 169.216509,29.1865146 168.786009,32.4699835 C168.384036,31.6062868 167.7105,30.8664028 166.737614,30.2768896 C165.924036,29.8422358 165.061184,29.6002212 164.151651,29.6002212 C163.768572,29.6002212 163.337331,29.6488486 162.906461,29.6971019 C161.565316,30.0352491 160.559828,31.0515608 159.936678,32.7434189 C159.122358,34.9200542 160.176009,37.000183 162.47522,37.2414495 C162.47522,37.145317 162.47522,37.0963156 162.427428,37.0963156 L162.427428,36.9025542 C161.277822,36.3220184 160.702834,35.6449759 160.702834,34.8224255 C160.702834,34.436025 160.846211,34.0006231 161.134075,33.5169679 C161.948395,32.2597637 163.050208,31.6317226 164.534729,31.6317226 C165.349419,31.6317226 166.067783,31.8247358 166.690563,32.2115104 C167.792006,32.8406736 168.366994,33.8076099 168.366994,35.0651882 C168.366994,35.8869906 167.983545,36.8060476 167.169596,37.772984 C166.067413,39.0780675 164.775172,39.7562321 163.193955,39.7562321 C160.176009,39.7562321 157.541883,37.7243566 156.24853,34.8227995 C155.721334,33.6145967 155.242672,32.6951656 154.907386,32.0663764 C154.38056,31.1966948 153.901527,30.471025 153.374331,29.8422358 C154.092696,29.9877439 154.763268,30.0356231 155.434211,30.0356231 C159.505437,30.0356231 163.672988,27.7628552 165.445373,24.2321349 C165.972199,23.1200646 166.067413,21.9107396 165.732497,20.5080274 C165.301256,18.8161693 164.055696,17.2196958 162.043979,15.7691042 C163.098,15.5274637 163.960111,15.3819557 164.582892,15.285075 C164.487307,15.1885684 164.343931,14.9955552 164.151651,14.7052873 C163.624825,14.8017939 163.146533,14.8986745 162.666759,14.9955552 L161.23003,15.285075 C157.732681,13.2064425 153.709617,12.1415033 149.159358,12.1415033 C148.536578,12.1415033 147.913798,12.1905047 147.291389,12.238758 C141.782693,12.6734118 138.621741,14.8017939 137.807792,18.5741547 C137.663675,19.2990764 137.56772,19.9282396 137.56772,20.5562807 C137.56772,23.8449863 139.532015,25.5862198 143.459494,25.8278604 C144.848431,25.924367 146.093991,25.5375925 147.195804,24.6667887 C148.297247,23.796733 148.919657,22.6846627 149.063404,21.2819505 C149.255684,19.2990764 147.96159,17.7994835 145.902452,17.6543495 C143.842202,17.5088415 142.069816,18.6702873 141.638946,20.604908 C142.693337,21.2819505 143.603241,21.8624863 144.321235,22.296766 L144.321235,22.1041269 C144.369027,22.0551255 144.369027,21.9586189 144.369027,21.9096175 C143.985949,21.3294557 143.698455,20.8948019 143.459494,20.604534 C143.842202,19.7337302 144.609099,19.0080604 145.710913,18.4761519 C145.997295,18.331392 146.28516,18.2345113 146.525232,18.2345113 C147.435136,18.2345113 148.15387,19.4434623 148.15387,20.4107726 C148.15387,21.1360684 147.674467,22.0068722 146.764563,22.9255552 C145.66238,24.1345061 144.513145,24.7636693 143.220163,24.8119226 C141.065069,24.9076811 139.866931,24.1345061 139.723184,22.5387807 C139.580178,20.9423071 139.723184,19.5885962 140.202958,18.4282726 C140.968373,16.5901585 142.549961,15.1874462 144.944386,14.2691373 C146.860518,13.4948401 148.96819,13.1080656 151.314822,13.1080656 C154.907386,13.1080656 157.829747,13.930242 160.128958,15.5267156 C159.314268,15.7197288 158.691117,15.9134901 158.260247,16.0586241 C154.955548,17.3162024 152.608175,19.4920896 151.123654,22.5391547 C150.309334,24.2310127 149.495015,26.0695009 148.680696,28.0527491 L148.344669,28.8745514 C147.626304,30.5664094 147.099849,31.8726151 146.764563,32.7426708 C145.47084,35.9348698 143.746988,38.2076377 141.591154,39.5620967 C140.68088,40.0936311 139.627229,40.3360198 138.430202,40.2873925 C137.185012,40.2387651 136.035407,39.9484972 134.981386,39.3683354 C133.20937,38.4006509 132.299096,37.046566 132.299096,35.354708 C132.299096,34.6769175 132.443214,33.9519958 132.777759,33.2267 C133.353117,31.9208684 134.838009,31.0021854 137.185012,30.4702769 L137.185012,29.7932344 C135.316672,30.1310075 133.783988,30.8570514 132.58659,31.9687476 C131.197283,33.2263259 130.478919,34.7255448 130.478919,36.5146575 C130.478919,37.046566 130.574873,37.5309693 130.718991,38.0142505 C131.53294,40.4804057 133.257163,41.7376099 135.987614,41.7376099 C136.753771,41.7376099 137.56809,41.6411033 138.430572,41.3998368 C139.771346,41.0613156 141.256608,40.4325264 142.933039,39.5138434 C144.60947,38.5947863 145.950985,37.6757292 146.860148,36.7566722 C148.58437,34.9671854 149.925886,32.9364321 150.931373,30.6636642 L152.32031,27.3757066 L152.751922,26.3597689 C153.948949,23.5064651 155.242672,21.0399358 156.631238,19.0570618 C157.349973,17.9936189 158.355831,17.1714425 159.649554,16.5909066 C160.176009,16.3967712 160.60725,16.2516373 160.84584,16.1555047 C162.235518,17.4617104 162.906461,19.0570618 162.858669,20.8951759 C162.762343,23.1193165 161.708693,25.1504439 159.697346,27.0368113 C158.11613,28.5356561 156.391907,29.3095792 154.476145,29.3095792 C153.997111,29.3095792 153.518078,29.2613259 152.991253,29.1648193 C152.799343,29.116192 152.656337,29.0679387 152.560383,29.0679387 L152.081349,30.180383 C152.51259,30.7119175 152.991253,31.5830953 153.422494,32.7430448 L154.811801,36.4188991 C155.434211,38.1107571 156.056991,39.3208302 156.631238,39.9492453 C157.781214,41.2554509 159.122358,41.883866 160.655042,41.883866 C161.181867,41.883866 161.756855,41.7873594 162.378895,41.6422255 C164.055325,41.2071976 165.58838,40.337142 166.929524,39.0784415 C167.898705,38.1923014 168.559274,37.2478085 168.915678,36.2700245 C169.266524,37.7505406 169.992298,39.2875392 171.111154,40.8686764 C174.12947,39.9492453 176.332355,37.0963156 177.624596,32.4048976 C178.481151,32.321109 179.304732,32.1378212 180.106455,31.8613934 C179.595931,34.3683208 178.975744,36.7712604 178.247377,39.0784415 C178.965741,40.2881406 179.875645,40.9165557 180.977087,41.0620637 C182.749473,39.7566061 184.570021,38.0632519 186.390569,35.8873646 C185.959328,37.773358 185.432503,39.5628448 184.857515,41.3040783 C182.845798,42.2231354 180.833711,43.1414443 178.869786,44.0605014 C176.905861,45.1246925 175.277964,46.575284 173.984611,48.4612774 C172.115901,51.1211939 171.445328,53.2495759 171.876199,54.8449274 C172.259648,56.1990123 172.93059,56.924308 173.888657,57.069816 C174.846723,57.1663226 175.852581,56.9733094 176.85881,56.4406528 C178.918319,55.3768358 180.642542,53.9258703 182.079642,52.1367575 C184.092099,49.5733476 185.767419,46.4294019 187.108563,42.7546698 C187.348636,42.029 187.539804,41.6418514 187.63613,41.5939722 C189.216605,40.7714217 191.084205,39.9492453 192.090434,38.5955344 C192.665422,38.1111311 193.240039,37.3379561 193.862449,36.2741392 C193.872081,36.2573066 193.880602,36.2412222 193.889864,36.2243896 C194.010642,37.4007976 194.281093,38.625833 194.724931,39.900992 C194.868307,39.9492453 195.059846,39.9492453 195.251756,39.9492453 C196.40062,39.9492453 197.59913,39.2235755 198.891741,37.7247307 C200.281048,36.0328726 201.190581,34.7752943 201.621822,33.8554892 C201.670355,33.9044906 201.670355,34.0009972 201.670355,34.1943844 C201.621822,34.581159 201.57403,34.8718009 201.57403,35.0651882 C201.526608,36.6605396 201.478075,37.6761033 201.526608,38.1111311 C201.670355,39.3208302 202.053063,40.2395132 202.675473,40.7710476 C202.81922,40.9165557 203.010389,41.0134363 203.203039,41.0134363 C205.257361,40.9079524 207.159045,39.4659642 208.909202,36.6841052 C208.921428,37.059658 208.947732,37.4116453 208.998117,37.7243566 C209.285241,39.6107241 210.003605,40.819675 211.201744,41.3515835 C212.015322,41.737984 212.830012,41.6904788 213.691383,41.1585703 C215.144042,40.2372689 216.524828,38.7365538 217.834482,36.6279967 C217.890425,36.9025542 217.961557,37.1868373 218.050473,37.482342 C218.290175,38.4496524 218.577669,39.2722028 218.81663,39.9978726 C220.013657,43.0445637 222.217283,44.7850491 225.427139,45.220825 C226.145133,45.2690783 226.815705,45.3173316 227.487018,45.3173316 C230.408268,45.3173316 233.186512,44.592784 235.821009,43.0935651 C238.455506,41.5935981 240.610599,39.6107241 242.239238,37.0473142 C243.245467,35.499842 243.72413,33.8554892 243.72413,32.0663764 C243.72487,30.5671575 243.389955,29.0204335 242.67159,27.4239599 L242.67159,27.4239599 Z M223.703286,27.6659745 C224.901054,25.7799811 225.762795,24.8609241 226.337413,24.8609241 C226.67344,24.8609241 226.864238,25.151192 227.008355,25.4897132 C227.10431,25.8286085 227.152102,26.215009 227.152102,26.6017835 C227.152102,27.6659745 226.721232,28.7305396 225.811328,29.8426099 C224.565768,31.2932014 223.033084,32.1640052 221.260328,32.4056458 C221.596355,31.389334 222.409934,29.7939825 223.703286,27.6659745 L223.703286,27.6659745 Z M214.124105,22.4916495 C215.274081,17.994367 216.662277,14.5119 218.243494,12.0457448 C218.387241,11.8041042 218.530988,11.7064755 218.57841,11.7064755 C218.818482,11.7064755 218.818482,12.2870113 218.674735,13.3994557 C217.572922,20.8472967 215.417828,26.2640104 212.208343,29.6974759 C212.639214,27.9558684 213.310157,25.5383406 214.124105,22.4916495 L214.124105,22.4916495 Z M171.542024,39.1760703 C170.63212,37.9671193 170.152717,36.709541 170.152717,35.4037094 C170.152717,33.66285 170.727705,31.9694958 171.829518,30.3741443 C172.452669,31.7768566 173.936819,32.5017783 176.379777,32.5017783 C175.709205,35.6939774 174.080937,37.918492 171.542024,39.1760703 L171.542024,39.1760703 Z M176.523895,31.389334 C174.894886,31.389334 174.080937,30.7612929 174.080937,29.5040887 C174.080937,29.0208075 174.224313,28.4402717 174.511807,27.7632292 C175.134958,27.3278274 175.852952,27.0379335 176.571687,26.8924255 C176.619849,27.6659745 176.667642,28.3916443 176.667642,29.0686868 C176.667271,29.8904892 176.619479,30.6644123 176.523895,31.389334 L176.523895,31.389334 Z M182.366765,47.5912217 C180.019392,52.7651726 178.056949,55.3285825 176.571316,55.3768358 C175.374289,55.3768358 174.751139,54.6994193 174.751139,53.3457085 C174.751139,53.0068132 174.798931,52.6196646 174.894886,52.1846368 C175.325756,49.7181075 176.475361,47.6869802 178.247747,46.1877613 C179.541099,45.075691 181.552816,43.9153675 184.331431,42.8029231 C183.804976,44.302516 183.134033,45.8982415 182.366765,47.5912217 L182.366765,47.5912217 Z M202.149759,30.6644123 C200.952732,32.9854335 200.08988,34.4850264 199.563425,35.2103222 C198.41419,36.8064217 197.120096,37.8698646 195.683738,38.4013991 C195.348452,37.482716 195.156542,36.6122863 195.156542,35.7426047 C195.156542,34.0496245 195.779693,32.3087651 197.024883,30.6157849 C198.892482,28.0531231 200.808985,26.6014094 202.867753,26.2636363 C202.532837,27.7142278 202.292765,29.1655675 202.149759,30.6644123 L202.149759,30.6644123 Z" id="Shape" fill="#FFFFFF"></path>
                </g>
            </g>
        </g>
    </g>
</svg>