<svg xmlns="http://www.w3.org/2000/svg" viewBox="0 0 128 128" enable-background="new 0 0 128 128"><style type="text/css">.st0{fill:#BF392B;} .st1{fill:#AC3327;} .st2{fill:#D6D6D6;} .st3{fill:#CACACA;} .st4{fill:#E2574C;} .st5{fill:#CB4E44;} .st6{fill:#E0E0E0;} .st7{fill:#D07C40;} .st8{fill:#D1D1D1;} .st9{fill:#EBEBEB;} .st10{fill:#BB6F39;} .st11{fill:#DBDBDB;} .st12{fill:#F4B459;} .st13{fill:#EFC75E;} .st14{fill:#E6E6E6;} .st15{fill:#DBA250;} .st16{fill:#EFEFEF;} .st17{fill:#DDDDDD;} .st18{fill:#BFBFBF;}</style><path class="st0" d="M10.6 71.5l11.6-20.3c1.2-2.1 3.9-2.8 6-1.6l85.6 49.9c2.1 1.2 2.8 3.9 1.6 6l-11.6 20.3c-1.2 2.1-3.9 2.8-6 1.6l-85.6-49.9c-2.1-1.2-2.8-3.9-1.6-6z"/><path class="st1" d="M22.3 51.6l-.2-.2-2.3 4.1 65.7 58.6-63.2-62.5z"/><path class="st2" d="M103.8 125.8l11.6-20.3c1.2-2.1.5-4.8-1.6-6l-27.1-15.8-16.9 27.4 28 16.3c2.1 1.2 4.8.5 6-1.6z"/><path class="st3" d="M74.6 103.3l-.5.7 11.3 10.1z"/><path class="st4" d="M22.3 45.5l16.4-16.3c1.7-1.7 4.5-1.7 6.2 0l69.8 69.1c1.7 1.7 1.7 4.4 0 6.1l-16.4 16.3c-1.7 1.7-4.5 1.7-6.2 0l-69.8-69.1c-1.7-1.7-1.7-4.4 0-6.1z"/><path class="st5" d="M37.6 30.3l-3.8 3.7 44 66-40.2-69.7z"/><path class="st6" d="M114.7 104.4c1.7-1.7 1.7-4.4 0-6.1l-23.7-23.4-22.8 22.1 23.9 23.7c1.7 1.7 4.5 1.7 6.2 0l16.4-16.3z"/><path class="st7" d="M39.2 24.3l20.3-11.7c2.1-1.2 4.8-.5 6 1.6l49.8 86.4c1.2 2.1.5 4.8-1.6 6l-20.3 11.7c-2.1 1.2-4.8.5-6-1.6l-49.8-86.4c-1.2-2.1-.5-4.8 1.6-6z"/><path class="st8" d="M73.2 92.1l-.4.4 5 7.5z"/><path class="st9" d="M93.5 118.4l20.3-11.7c2.1-1.2 2.8-3.9 1.6-6l-17.4-30.2-27.5 17 16.9 29.3c1.3 2.1 4 2.8 6.1 1.6z"/><path class="st10" d="M61.2 14.4c-.2-.8-.2-1.6 0-2.4-.6.1-1.1.3-1.7.6l-4.1 2.4 28.2 82-22.4-82.6zM93.3 111.6h.2v-.1z"/><path class="st11" d="M93.3 111.6h.2v-.1zM79.5 81.9l-.9.6 5 14.5z"/><path class="st12" d="M64.2 9.1l22.6-6c2.3-.6 4.7.7 5.4 3l25.7 94.4c.6 2.3-.8 4.7-3.1 5.3l-22.6 6c-2.3.6-4.7-.7-5.4-3l-25.6-94.4c-.7-2.3.7-4.7 3-5.3z"/><path class="st13" d="M92.2 0h20.7c2.9 0 5.2 2.3 5.2 5.2v97.6c0 2.9-2.3 5.2-5.2 5.2h-20.7c-2.9 0-5.2-2.3-5.2-5.2v-97.6c0-2.9 2.3-5.2 5.2-5.2z"/><path class="st14" d="M78.4 77.9l8.4 30.9c.6 2.3 3 3.7 5.4 3l22.6-6c2.3-.6 3.7-3 3.1-5.3l-8.4-30.5-31.1 7.9z"/><path class="st15" d="M87 5.2c0-.8.2-1.5.5-2.1-.2 0-.5 0-.7.1l-5.3 1.4 5.5 79.7v-79.1z"/><path class="st16" d="M87 69.9v32.9c0 2.9 2.3 5.2 5.2 5.2h20.7c2.9 0 5.2-2.3 5.2-5.2v-32.9h-31.1z"/><path class="st17" d="M87 75.7l-.6.2.6 8.4z"/><path class="st18" d="M92 75v5h17v-5h-17zm0 26h7v-3h-7v3zm0-7h7v-3h-7v3zm0-7h7v-3h-7v3zM109.5 96c1.4 0 2.5 1.1 2.5 2.5s-1.1 2.5-2.5 2.5-2.5-1.1-2.5-2.5 1.1-2.5 2.5-2.5z"/></svg>