<svg xmlns="http://www.w3.org/2000/svg" viewBox="0 0 128 128" enable-background="new 0 0 128 128"><style type="text/css">.st0{fill:#FDF0DE;} .st1{fill:#475F6C;} .st2{fill:#2B414D;} .st3{fill:#E49ADF;} .st4{fill:#E5C45A;} .st5{fill:#A6D26E;} .st6{fill:#1E2D36;} .st7{fill:#566268;} .st8{fill:#3F5E6D;} .st9{fill:#E2574C;} .st10{fill:#D2BB9A;} .st11{fill:#FDF3E5;} .st12{fill:#F5E8D5;} .st13{fill:#E9AEE5;} .st14{fill:#EAD07B;} .st15{fill:#B8DB8B;}</style><path class="st0" d="M16 0h96c8.8 0 16 7.2 16 16v96c0 8.8-7.2 16-16 16h-96c-8.8 0-16-7.2-16-16v-96c0-8.8 7.2-16 16-16z"/><path class="st1" d="M0 93v19c0 8.8 7.2 16 16 16h96c8.8 0 16-7.2 16-16v-19h-128z"/><path class="st2" d="M24.4 105h79.2c2.4 0 4.4 2 4.4 4.5s-2 4.5-4.4 4.5h-79.2c-2.4 0-4.4-2-4.4-4.5s2-4.5 4.4-4.5z"/><path class="st3" d="M49 58h10v35h-10v-35z"/><path class="st4" d="M59 58h10v35h-10v-35z"/><path class="st5" d="M69 58h10v35h-10v-35z"/><path class="st2" d="M64 23c13.8 0 25 11.2 25 25s-11.2 25-25 25-25-11.2-25-25 11.2-25 25-25z"/><path class="st1" d="M64 28c11 0 20 9 20 20s-9 20-20 20-20-9-20-20 9-20 20-20z"/><path class="st2" d="M64 34c7.7 0 14 6.3 14 14s-6.3 14-14 14-14-6.3-14-14 6.3-14 14-14z"/><path class="st6" d="M64 41c3.9 0 7 3.1 7 7s-3.1 7-7 7-7-3.1-7-7 3.1-7 7-7z"/><path class="st7" d="M62.5 44c1.4 0 2.5 1.1 2.5 2.5s-1.1 2.5-2.5 2.5-2.5-1.1-2.5-2.5 1.1-2.5 2.5-2.5z"/><path class="st8" d="M103 23h7c2.2 0 4 1.8 4 4v7c0 2.2-1.8 4-4 4h-7c-2.2 0-4-1.8-4-4v-7c0-2.2 1.8-4 4-4z"/><path class="st9" d="M22 39c3.3 0 6 2.7 6 6s-2.7 6-6 6-6-2.7-6-6 2.7-6 6-6z"/><path class="st10" d="M18 23h8c2.2 0 4 1.8 4 4v1c0 2.2-1.8 4-4 4h-8c-2.2 0-4-1.8-4-4v-1c0-2.2 1.8-4 4-4z"/><path class="st11" d="M0 82h128v11h-128v-11z"/><path class="st12" d="M112 0h-96c-8.8 0-16 7.2-16 16v8c0-8.8 7.2-16 16-16h96c8.8 0 16 7.2 16 16v-8c0-8.8-7.2-16-16-16z"/><path class="st13" d="M49 82h10v11h-10z"/><path class="st14" d="M59 82h10v11h-10z"/><path class="st15" d="M69 82h10v11h-10z"/></svg>