<?xml version="1.0" encoding="UTF-8" standalone="no"?>
<svg width="20px" height="18px" viewBox="0 0 20 18" version="1.1" xmlns="http://www.w3.org/2000/svg" xmlns:xlink="http://www.w3.org/1999/xlink">
    <!-- Generator: Sketch 3.7.1 (28215) - http://www.bohemiancoding.com/sketch -->
    <title>ufo</title>
    <desc>Created with Sketch.</desc>
    <defs></defs>
    <g id="Page-1" stroke="none" stroke-width="1" fill="none" fill-rule="evenodd">
        <g id="ufo">
            <path d="M10.0862069,14.2758621 C9.06206897,14.2758621 8.22413793,15.1137931 8.22413793,16.137931 C8.22413793,17.162069 9.06206897,18 10.0862069,18 C11.1103448,18 11.9482759,17.162069 11.9482759,16.137931 C11.9482759,15.1137931 11.1103448,14.2758621 10.0862069,14.2758621 L10.0862069,14.2758621 Z M15.0517241,13.0344828 C14.0275862,13.0344828 13.1896552,13.8724138 13.1896552,14.8965517 C13.1896552,15.9206897 14.0275862,16.7586207 15.0517241,16.7586207 C16.0758621,16.7586207 16.9137931,15.9206897 16.9137931,14.8965517 C16.9137931,13.8724138 16.0758621,13.0344828 15.0517241,13.0344828 L15.0517241,13.0344828 Z M5.12068966,13.0344828 C4.09655172,13.0344828 3.25862069,13.8724138 3.25862069,14.8965517 C3.25862069,15.9206897 4.09655172,16.7586207 5.12068966,16.7586207 C6.14482759,16.7586207 6.98275862,15.9206897 6.98275862,14.8965517 C6.98275862,13.8724138 6.14482759,13.0344828 5.12068966,13.0344828 L5.12068966,13.0344828 Z" id="Shape" fill="#324D5B"></path>
            <path d="M4.37586207,8.2862069 C7.52586207,6.34655172 12.6310345,6.34655172 15.7810345,8.2862069 C18.9310345,10.2258621 18.9310345,13.3758621 15.7810345,15.3 C12.6310345,17.2396552 7.52586207,17.2396552 4.37586207,15.3 C1.22586207,13.3603448 1.22586207,10.2258621 4.37586207,8.2862069 L4.37586207,8.2862069 Z" id="Shape" fill="#E2574C"></path>
            <path d="M5.15172414,14.8344828 C2.11034483,12.9568966 2.00172414,9.96206897 4.84137931,8.02241379 C4.6862069,8.1 4.53103448,8.19310345 4.37586207,8.2862069 C1.22586207,10.2258621 1.22586207,13.3758621 4.37586207,15.3 C7.52586207,17.2396552 12.6310345,17.2396552 15.7810345,15.3 C15.8896552,15.237931 15.9982759,15.1603448 16.0913793,15.0982759 C12.9258621,16.7741379 8.14655172,16.6810345 5.15172414,14.8344828 L5.15172414,14.8344828 Z" id="Shape" fill="#CB4E44"></path>
            <path d="M3.05689655,4.82586207 C6.9362069,2.52931034 13.2206897,2.52931034 17.1,4.82586207 C20.9793103,7.12241379 20.9793103,10.862069 17.1,13.1586207 C13.2206897,15.4551724 6.9362069,15.4551724 3.05689655,13.1586207 C-0.822413793,10.862069 -0.822413793,7.13793103 3.05689655,4.82586207 L3.05689655,4.82586207 Z" id="Shape" fill="#324D5B"></path>
            <path d="M17.7362069,12.5534483 C13.8568966,14.85 7.57241379,14.85 3.69310345,12.5534483 C0.55862069,10.6913793 -0.0465517241,7.9137931 1.86206897,5.69482759 C-0.760344828,7.99137931 -0.356896552,11.1413793 3.05689655,13.1741379 C6.9362069,15.4706897 13.2206897,15.4706897 17.1,13.1741379 C17.8448276,12.7241379 18.45,12.2275862 18.9155172,11.7 C18.5741379,11.9948276 18.1862069,12.2741379 17.7362069,12.5534483 L17.7362069,12.5534483 Z" id="Shape" fill="#2D4552"></path>
            <path d="M10.0862069,0 C13.5155172,0 16.2931034,2.77758621 16.2931034,6.20689655 C16.2931034,9.6362069 13.5155172,11.1724138 10.0862069,11.1724138 C6.65689655,11.1724138 3.87931034,9.6362069 3.87931034,6.20689655 C3.87931034,2.77758621 6.65689655,0 10.0862069,0 L10.0862069,0 Z" id="Shape" fill="#E4E7E7"></path>
            <path d="M3.87931034,6.20689655 C3.87931034,9.62068966 6.64137931,11.1568966 10.0396552,11.1724138 L10.0862069,11.1724138 L10.0862069,0 C6.65689655,0 3.87931034,2.77758621 3.87931034,6.20689655 L3.87931034,6.20689655 Z" id="Shape" fill="#D8DBDB"></path>
            <path d="M10.0862069,11.1724138 C11.4827586,11.1724138 12.7706897,10.9241379 13.8103448,10.3810345 L13.8103448,6.20689655 C13.8103448,4.14310345 12.15,2.48275862 10.0862069,2.48275862 C8.02241379,2.48275862 6.36206897,4.14310345 6.36206897,6.20689655 L6.36206897,10.3810345 C7.40172414,10.9241379 8.68965517,11.1724138 10.0862069,11.1724138 L10.0862069,11.1724138 Z" id="Shape" fill="#3DB39E"></path>
            <path d="M6.36206897,6.20689655 L6.36206897,10.3810345 C7.3862069,10.9086207 8.67413793,11.1724138 10.0551724,11.1724138 L10.0862069,11.1724138 L10.0862069,2.48275862 C8.02241379,2.48275862 6.36206897,4.15862069 6.36206897,6.20689655 L6.36206897,6.20689655 Z" id="Shape" fill="#3AAA96"></path>
            <path d="M10.0862069,4.96551724 C11.1103448,4.96551724 11.9482759,5.80344828 11.9482759,6.82758621 C11.9482759,7.85172414 11.1103448,8.68965517 10.0862069,8.68965517 C9.06206897,8.68965517 8.22413793,7.85172414 8.22413793,6.82758621 C8.22413793,5.80344828 9.06206897,4.96551724 10.0862069,4.96551724 L10.0862069,4.96551724 Z" id="Shape" fill="#FFFFFF"></path>
            <path d="M10.0862069,4.96551724 C9.06206897,4.96551724 8.22413793,5.80344828 8.22413793,6.82758621 C8.22413793,7.85172414 9.06206897,8.68965517 10.0862069,8.68965517 L10.0862069,4.96551724 L10.0862069,4.96551724 Z" id="Shape" fill="#F2F2F2"></path>
            <path d="M10.0862069,5.89655172 C10.5982759,5.89655172 11.0172414,6.31551724 11.0172414,6.82758621 C11.0172414,7.33965517 10.5982759,7.75862069 10.0862069,7.75862069 C9.57413793,7.75862069 9.15517241,7.33965517 9.15517241,6.82758621 C9.15517241,6.31551724 9.57413793,5.89655172 10.0862069,5.89655172 L10.0862069,5.89655172 Z" id="Shape" fill="#324D5B"></path>
            <path d="M10.0862069,5.89655172 C9.57413793,5.89655172 9.15517241,6.31551724 9.15517241,6.82758621 C9.15517241,7.33965517 9.57413793,7.75862069 10.0862069,7.75862069 L10.0862069,5.89655172 L10.0862069,5.89655172 Z" id="Shape" fill="#2F4956"></path>
        </g>
    </g>
</svg>