<svg xmlns="http://www.w3.org/2000/svg" viewBox="0 0 128 128" enable-background="new 0 0 128 128"><style type="text/css">.st0{fill:#EFC75E;} .st1{fill:#DEB957;} .st2{fill:#F26C4F;} .st3{fill:#F4F0D3;} .st4{fill:#E8E4C8;} .st5{fill:#8BA0AB;} .st6{fill:#324D5B;}</style><path class="st0" d="M39.8 90.2c5.6 5.6 5.6 14.8 0 20.4s-22.1 12.9-27.7 7.3 1.7-22.1 7.3-27.7c5.6-5.6 14.7-5.6 20.4 0z"/><path class="st1" d="M23.1 87.5v.6c0 10.4 8.5 18.9 18.9 18.9h.4c2.8-5.4 1.9-12.2-2.7-16.8-4.4-4.5-11.2-5.4-16.6-2.7z"/><path class="st2" d="M69.2 58.8c17.1 17.1 20.5 41.4 4.3 57.6l-7.7 7.7c-16.2 16.2-5-22.7-22.1-39.8s-56.1-5.8-39.8-22.1l7.7-7.7c16.2-16.2 40.5-12.8 57.6 4.3z"/><path class="st3" d="M125.8 2.2c5.2 5.2 2.9 38.2-29 70.2-20.8 20.7-33.9 28-33.9 28-13.9 9.4-20.6 3-29.4-5.8s-15.3-15.5-5.8-29.4c0 0 7.4-13.2 28.1-34 31.9-31.9 64.8-34.3 70-29z"/><path class="st4" d="M68.4 95.9c-14.5 9.7-21.5 3.1-30.6-6-9.2-9.2-15.9-16.1-6-30.6l1.5-2.4c-3.9 5.3-5.6 8.3-5.6 8.3-9.5 13.9-3 20.6 5.8 29.4s15.5 15.1 29.4 5.8c0 0 6.2-3.5 16.9-12.4-7.3 5.6-11.4 7.9-11.4 7.9z"/><path class="st5" d="M92.3 35.7c4.9 4.9 4.9 12.8 0 17.7s-12.8 4.9-17.7 0c-4.9-4.9-4.9-12.8 0-17.7 4.9-4.9 12.9-4.9 17.7 0z"/><path class="st2" d="M63.4 66.7c2.5 2.5-2.3 11.4-14.5 23.6s-19.6 15.5-22.1 12.9c-2.5-2.5.7-9.9 12.9-22.1 12.3-12.2 21.1-17 23.7-14.4z"/><path class="st6" d="M83.5 35c2.5 0 4.9 1 6.7 2.8 1.8 1.8 2.8 4.2 2.8 6.7s-1 4.9-2.8 6.7c-1.8 1.8-4.2 2.8-6.7 2.8s-4.9-1-6.7-2.8c-1.8-1.8-2.8-4.2-2.8-6.7s1-4.9 2.8-6.7c1.8-1.8 4.2-2.8 6.7-2.8m0-3c-3.2 0-6.4 1.2-8.8 3.7-4.9 4.9-4.9 12.8 0 17.7 2.4 2.4 5.6 3.7 8.8 3.7 3.2 0 6.4-1.2 8.8-3.7 4.9-4.9 4.9-12.8 0-17.7-2.4-2.5-5.6-3.7-8.8-3.7z"/><path class="st2" d="M95.2 4.7c.9 6.7 4.5 13.8 10.4 19.7 5.2 5.1 11.2 8.5 17.1 9.9 6.6-16.4 6.1-29 3.1-32.1-2.9-3-14.9-3.5-30.6 2.5z"/></svg>