<?xml version="1.0" encoding="UTF-8" standalone="no"?>
<svg width="115px" height="128px" viewBox="0 0 115 128" version="1.1" xmlns="http://www.w3.org/2000/svg" xmlns:xlink="http://www.w3.org/1999/xlink">
    <!-- Generator: Sketch 3.7.2 (28276) - http://www.bohemiancoding.com/sketch -->
    <title>icon-speaker</title>
    <desc>Created with Sketch.</desc>
    <defs></defs>
    <g id="Page-1" stroke="none" stroke-width="1" fill="none" fill-rule="evenodd">
        <g id="icon-speaker">
            <path d="M34,89.2 L53.6,83 C55.8,89 50.5,90.9 51.5,98.3 C51.9,101.1 54,100.3 55.2,103.4 L55.5,111 L61.8,116 C62.7,118.4 59.7,121.2 59.7,121.2 C59.7,121.2 53.1,128.7 48.4,127.9 C41.8,126.9 34,89.2 34,89.2 L34,89.2 Z" id="Shape" fill="#3E4E5C"></path>
            <path d="M51.5,98.3 C50.6,91.2 55.2,89.2 53.8,83.9 L41.6,86.8 L34,89.2 C-7,7.10542736e-15 34.2,90.3 34.7,92.2 L51.9,99.4 C51.7,99.1 51.6,98.8 51.5,98.3 L51.5,98.3 Z" id="Shape" fill="#323E4A"></path>
            <path d="M7.6,55.8 L18.2,52 C18.3,56.5 20.1,64.2 23.2,72.7 C26.3,81.1 30,88.1 33,91.6 L22.4,95.4 C15.2,98 6.1,91.2 2,80.3 C-2.1,69.3 0.4,58.4 7.6,55.8 L7.6,55.8 Z" id="Shape" fill="#3E4E5C"></path>
            <path d="M79.1,52.4 C70.6,29.5 67.8,8.9 72.1,3.3 C71.5,3.9 70.8,4.7 70,5.9 C62.9,16.4 51,39 10.2,53.6 L10.2,53.7 C7.7,54.6 9.1,64.6 13.3,75.9 C17.5,87.3 22.9,95.8 25.4,94.9 C66.2,80.3 90.2,90.4 102.6,93.9 C106.5,95 108.7,93.6 108.7,93.6 C102.2,96.1 88.6,77.8 79.1,52.4 L79.1,52.4 Z" id="Shape" fill="#5992BD"></path>
            <path d="M70.2,13 C71.2,6.9 71.5,5.7 71.9,3.8 L72,3.5 C71.5,4.1 70.8,4.8 70.1,5.9 C62.9,16.4 51,39 10.2,53.6 L10.2,53.7 C9.2,54.1 8.8,55.9 9,58.6 L12.3,57.6 C49.9,44.3 62.8,24.1 70.2,13 L70.2,13 Z" id="Shape" fill="#63A3D2"></path>
            <path d="M75.3,0.3 C67.4,3.2 68.5,26.5 77.8,52.3 C87,78.1 100.9,96.7 108.8,93.7 C116.7,90.8 115.6,67.5 106.3,41.7 C97,15.9 83.1,-2.6 75.3,0.3 L75.3,0.3 Z" id="Shape" fill="#487190"></path>
            <path d="M87.7,62.3 C78.5,36.5 77.4,13.2 85.2,10.3 C86.9,9.7 88.8,10 90.9,11.2 C85.1,3.1 79.4,-1.2 75.3,0.3 C67.4,3.2 68.5,26.5 77.8,52.3 C85.1,72.7 95.3,88.5 103.1,92.8 C97.7,85.4 92.2,74.7 87.7,62.3 L87.7,62.3 Z" id="Shape" fill="#426885"></path>
            <path d="M75.5,41.8 C75.1,41.9 74.8,42.1 74.5,42.2 C75.4,45.5 76.5,48.8 77.7,52.3 C79.5,57.3 81.5,62.1 83.6,66.5 C83.9,66.4 84.2,66.3 84.4,66.2 C91.1,63.7 94.6,56.3 92.2,49.5 C89.7,42.8 82.3,39.3 75.5,41.8 L75.5,41.8 Z" id="Shape" fill="#EBEDEE"></path>
            <path d="M87.7,62.3 C85,54.9 83.1,47.7 81.8,41.1 C79.8,40.8 77.6,41 75.5,41.8 C75.1,41.9 74.8,42.1 74.5,42.2 C75.4,45.5 76.5,48.8 77.7,52.3 C79.5,57.3 81.5,62.1 83.6,66.5 C83.9,66.4 84.2,66.3 84.4,66.2 C85.9,65.7 87.2,64.9 88.3,63.9 C88.1,63.4 87.9,62.9 87.7,62.3 L87.7,62.3 Z" id="Shape" fill="#D9DADB"></path>
        </g>
    </g>
</svg>