<svg xmlns="http://www.w3.org/2000/svg" viewBox="0 0 128 128" enable-background="new 0 0 128 128"><style type="text/css">.st0{fill:#EDEDED;} .st1{fill:#3DB39E;} .st2{fill:#9ED9CF;} .st3{fill:#324D5B;} .st4{fill:#99A6AD;} .st5{fill:#2B424D;} .st6{fill:#37A18E;}</style><path class="st0" d="M64 0c-35.3 0-64 28.7-64 64s28.7 64 64 64 64-28.7 64-64-28.7-64-64-64z"/><path class="st1" d="M64 28c19.9 0 36 16.1 36 36s-16.1 36-36 36-36-16.1-36-36 16.1-36 36-36z"/><path class="st2" d="M76 42c4.4 0 8 3.6 8 8s-3.6 8-8 8-8-3.6-8-8 3.6-8 8-8z"/><path class="st3" d="M64 46c9.9 0 18 8.1 18 18s-8.1 18-18 18-18-8-18-18 8.1-18 18-18z"/><path class="st4" d="M68.7 46.6c-.5 1-.7 2.2-.7 3.4 0 4.4 3.6 8 8 8 1.6 0 3.2-.5 4.4-1.3-2.1-4.9-6.4-8.6-11.7-10.1z"/><path class="st5" d="M67 79c-9.9 0-18-8.1-18-18 0-4.2 1.5-8.1 3.9-11.1-4.2 3.3-6.9 8.4-6.9 14.1 0 9.9 8.1 18 18 18 5.7 0 10.8-2.7 14.1-6.9-3 2.5-6.9 3.9-11.1 3.9z"/><path class="st6" d="M69 94c-19.9 0-36-16.1-36-36 0-7.3 2.2-14.2 6-19.9-6.8 6.6-11 15.7-11 25.9 0 19.9 16.1 36 36 36 12.5 0 23.6-6.4 30-16.1-6.5 6.2-15.3 10.1-25 10.1z"/></svg>