<?xml version="1.0" encoding="utf-8"?>
<!-- Generator: Adobe Illustrator 18.1.1, SVG Export Plug-In . SVG Version: 6.00 Build 0)  -->
<!DOCTYPE svg PUBLIC "-//W3C//DTD SVG 1.1//EN" "http://www.w3.org/Graphics/SVG/1.1/DTD/svg11.dtd">
<svg version="1.1" xmlns="http://www.w3.org/2000/svg" xmlns:xlink="http://www.w3.org/1999/xlink" x="0px" y="0px"
	 viewBox="0 0 36 36" enable-background="new 0 0 36 36" xml:space="preserve">
<g id="Guide">
</g>
<g id="Layer_1">
	<path d="M29,15v-3c0-6.1-4.9-11-11-11S7,5.9,7,12v3H3v16h15h15V15H29z M19,22.7V26h-2v-3.3c-0.6-0.3-1-1-1-1.7c0-1.1,0.9-2,2-2
		s2,0.9,2,2C20,21.7,19.6,22.4,19,22.7z M18,15h-7v-3c0-3.9,3.1-7,7-7s7,3.1,7,7v3H18z"/>
</g>
</svg>
