<?xml version="1.0" encoding="utf-8"?>
<!-- Generator: Adobe Illustrator 18.1.1, SVG Export Plug-In . SVG Version: 6.00 Build 0)  -->
<!DOCTYPE svg PUBLIC "-//W3C//DTD SVG 1.1//EN" "http://www.w3.org/Graphics/SVG/1.1/DTD/svg11.dtd">
<svg version="1.1" xmlns="http://www.w3.org/2000/svg" xmlns:xlink="http://www.w3.org/1999/xlink" x="0px" y="0px"
	 viewBox="0 0 36 36" enable-background="new 0 0 36 36" xml:space="preserve">
<g id="Guide">
</g>
<g id="Layer_1">
	<path d="M23,26c-1.5-0.8-0.7-2.3,0-3c0.9-0.9,2-4,2-4c1.8-0.8,2-2.1,2.2-3c0.8-2.6-1.2-3-1.2-3s1.6-4.3,0.3-7.6
		c-1.7-4.3-8.6-5.9-9.8-1.9l0,0C8.3,1.7,10,13,10,13s-2,0.4-1.2,3c0.2,0.9,0.4,2.2,2.2,3c0,0,1.1,3.1,2,4c0.7,0.7,1.5,2.2,0,3
		c-3,1.6-12,2-12,9h34C35,28,26,27.6,23,26z"/>
</g>
</svg>
