<?xml version="1.0" encoding="UTF-8" standalone="no"?>
<svg width="113px" height="128px" viewBox="0 0 113 128" version="1.1" xmlns="http://www.w3.org/2000/svg" xmlns:xlink="http://www.w3.org/1999/xlink">
    <!-- Generator: Sketch 3.7.2 (28276) - http://www.bohemiancoding.com/sketch -->
    <title>css</title>
    <desc>Created with Sketch.</desc>
    <defs></defs>
    <g id="Page-1" stroke="none" stroke-width="1" fill="none" fill-rule="evenodd">
        <g id="code-icons" transform="translate(-4.000000, -180.000000)">
            <g id="css" transform="translate(4.000000, 180.000000)">
                <polygon id="Shape" fill="#0070BA" points="0.0550537634 0.0275268817 112.19957 0.0275268817 102.179785 114.649462 56.4301075 127.807312 9.44172043 114.649462"></polygon>
                <polygon id="Shape" fill="#1B86C1" points="56.4576344 11.1208602 56.4576344 116.713978 94.252043 105.84086 102.537634 11.1208602"></polygon>
                <polygon id="Shape" fill="#FFFFFF" points="22.2692473 37.9870968 56.0997849 37.9595699 22.8748387 52.356129 24.7741935 65.5139785 73.6344086 65.5139785 71.7625806 84.3148387 55.2189247 87.4253763 40.4369892 83.6817204 39.1707527 73.0288172 25.3797849 73.0288172 27.2791398 94.9677419 56.7053763 103.115699 84.8929032 94.3346237 88.664086 51.2 58.4946237 51.2 91.2516129 37.7944086 91.2516129 24.1686022 20.3698925 24.1686022"></polygon>
            </g>
        </g>
    </g>
</svg>