<?xml version="1.0" encoding="UTF-8" standalone="no"?>
<svg width="117px" height="125px" viewBox="0 0 117 125" version="1.1" xmlns="http://www.w3.org/2000/svg" xmlns:xlink="http://www.w3.org/1999/xlink">
    <!-- Generator: Sketch 3.7.2 (28276) - http://www.bohemiancoding.com/sketch -->
    <title>html</title>
    <desc>Created with Sketch.</desc>
    <defs></defs>
    <g id="Page-1" stroke="none" stroke-width="1" fill="none" fill-rule="evenodd">
        <g id="code-icons" transform="translate(0.000000, -3.000000)">
            <g id="html">
                <g id="Group">
                    <polygon id="Shape" fill="#D99666" points="0 3.86715152 116.363636 3.86715152 104.727273 116.348121 62.0606061 127.984485 54.3030303 127.984485 11.6363636 116.348121 0 3.86715152"></polygon>
                    <polygon id="Shape" fill="#F4B459" points="58.1818182 15.4996364 100.848485 15.4996364 93.0909091 104.711758 58.1818182 116.348121 58.1818182 15.4996364"></polygon>
                    <polygon id="Shape" fill="#FFFFFF" points="89.2819394 38.7219394 90.5037576 27.136 23.1486061 27.136 24.5061818 38.7219394 25.7473939 54.3146667 25.7318788 54.3146667 26.9071515 65.92 72.0601212 65.92 70.5086061 84.3830303 58.1818182 88.2773333 58.1818182 88.1570909 41.7900606 83.8244848 40.7854545 73.6504242 27.0972121 73.6504242 28.9357576 92.3384242 28.9357576 93.1025455 58.1818182 100.83297 82.7073939 93.1025455 83.0060606 93.1025455 83.0138182 92.9978182 83.0681212 92.9900606 83.0681212 92.3772121 85.2867879 65.92 85.3372121 65.92 86.5163636 54.3146667 39.9825455 54.3146667 38.7413333 38.7219394"></polygon>
                    <g transform="translate(19.393939, 23.272727)" id="Shape" fill="#E5E5E5">
                        <polygon points="38.7878788 3.86327273 3.75466667 3.86327273 5.11224242 15.4492121 6.35345455 31.0419394 6.33793939 31.0419394 7.51321212 42.6472727 38.7878788 42.6472727 38.7878788 31.0419394 20.5886061 31.0419394 19.3473939 15.4492121 38.7878788 15.4492121"></polygon>
                        <polygon points="38.7878788 64.8843636 22.3961212 60.5517576 21.3915152 50.377697 7.70327273 50.377697 9.54181818 69.065697 9.54181818 69.8298182 38.7878788 77.5602424 38.7878788 65.0046061"></polygon>
                    </g>
                </g>
            </g>
        </g>
    </g>
</svg>