<?xml version="1.0" encoding="UTF-8" standalone="no"?>
<svg width="128px" height="128px" viewBox="0 0 128 128" version="1.1" xmlns="http://www.w3.org/2000/svg" xmlns:xlink="http://www.w3.org/1999/xlink">
    <!-- Generator: Sketch 3.7.2 (28276) - http://www.bohemiancoding.com/sketch -->
    <title>php</title>
    <desc>Created with Sketch.</desc>
    <defs></defs>
    <g id="Page-1" stroke="none" stroke-width="1" fill="none" fill-rule="evenodd">
        <g id="code-icons" transform="translate(-157.000000, 0.000000)">
            <g id="php" transform="translate(157.000000, 0.000000)">
                <g id="Group">
                    <path d="M6,0 L122,0 C125.3,0 128,2.7 128,6 L128,122 C128,125.3 125.3,128 122,128 L6,128 C2.7,128 0,125.3 0,122 L0,6 C0,2.7 2.7,0 6,0 L6,0 L6,0 Z" id="Shape" fill="#EFEFEF"></path>
                    <path d="M12,24 L116,24 C118.2,24 120,25.8 120,28 L120,116 C120,118.2 118.2,120 116,120 L12,120 C9.8,120 8,118.2 8,116 L8,28 C8,25.8 9.8,24 12,24 L12,24 L12,24 Z" id="Shape" fill="#2B414D"></path>
                    <path d="M28,42 L86,42 C87.1,42 88,42.9 88,44 L88,46 C88,47.1 87.1,48 86,48 L28,48 C26.9,48 26,47.1 26,46 L26,44 C26,42.9 26.9,42 28,42 L28,42 L28,42 Z" id="Shape" fill="#E4E7E7"></path>
                    <path d="M52,56 L28,56 C26.9,56 26,56.9 26,58 L26,60 C26,61.1 26.9,62 28,62 L52,62 C53.1,62 54,61.1 54,60 L54,58 C54,56.9 53.1,56 52,56 L52,56 L52,56 Z M46,84 L28,84 C26.9,84 26,84.9 26,86 L26,88 C26,89.1 26.9,90 28,90 L46,90 C47.1,90 48,89.1 48,88 L48,86 C48,84.9 47.1,84 46,84 L46,84 L46,84 Z M100,84 L88,84 C86.9,84 86,84.9 86,86 L86,88 C86,89.1 86.9,90 88,90 L100,90 C101.1,90 102,89.1 102,88 L102,86 C102,84.9 101.1,84 100,84 L100,84 L100,84 Z" id="Shape" fill="#E35E53"></path>
                    <path d="M100,56 L64,56 C62.9,56 62,56.9 62,58 L62,60 C62,61.1 62.9,62 64,62 L100,62 C101.1,62 102,61.1 102,60 L102,58 C102,56.9 101.1,56 100,56 L100,56 L100,56 Z M100,98 L28,98 C26.9,98 26,98.9 26,100 L26,102 C26,103.1 26.9,104 28,104 L100,104 C101.1,104 102,103.1 102,102 L102,100 C102,98.9 101.1,98 100,98 L100,98 L100,98 Z" id="Shape" fill="#26A6D1"></path>
                    <path d="M76,70 L28,70 C26.9,70 26,70.9 26,72 L26,74 C26,75.1 26.9,76 28,76 L76,76 C77.1,76 78,75.1 78,74 L78,72 C78,70.9 77.1,70 76,70 L76,70 L76,70 Z M76,84 L58,84 C56.9,84 56,84.9 56,86 L56,88 C56,89.1 56.9,90 58,90 L76,90 C77.1,90 78,89.1 78,88 L78,86 C78,84.9 77.1,84 76,84 L76,84 L76,84 Z" id="Shape" fill="#49B8A4"></path>
                    <path d="M12,8 C9.8,8 8,9.8 8,12 C8,14.2 9.8,16 12,16 C14.2,16 16,14.2 16,12 C16,9.8 14.2,8 12,8 L12,8 L12,8 Z M24,8 C21.8,8 20,9.8 20,12 C20,14.2 21.8,16 24,16 C26.2,16 28,14.2 28,12 C28,9.8 26.2,8 24,8 L24,8 L24,8 Z M36,8 C33.8,8 32,9.8 32,12 C32,14.2 33.8,16 36,16 C38.2,16 40,14.2 40,12 C40,9.8 38.2,8 36,8 L36,8 L36,8 Z" id="Shape" fill="#BFC3C5"></path>
                </g>
            </g>
        </g>
    </g>
</svg>