<?xml version="1.0" encoding="UTF-8" standalone="no"?>
<svg width="128px" height="128px" viewBox="0 0 128 128" version="1.1" xmlns="http://www.w3.org/2000/svg" xmlns:xlink="http://www.w3.org/1999/xlink">
    <!-- Generator: Sketch 3.7.2 (28276) - http://www.bohemiancoding.com/sketch -->
    <title>twig</title>
    <desc>Created with Sketch.</desc>
    <defs></defs>
    <g id="Page-1" stroke="none" stroke-width="1" fill="none" fill-rule="evenodd">
        <g id="code-icons" transform="translate(-157.000000, -180.000000)">
            <g id="twig" transform="translate(157.000000, 180.000000)">
                <g id="Group">
                    <path d="M64,0 C99.34592,0 128,28.65408 128,64 C128,99.34592 99.34592,128 64,128 C28.65408,128 0,99.34592 0,64 C0,28.65408 28.65408,0 64,0 L64,0 Z" id="Shape" fill="#3DB39E"></path>
                    <path d="M69.4395316,69.9096747 C64.7921736,58.5757038 52.3973191,46.755159 25.5788434,36.8721695 C-1.68698696,105.417927 39.6747847,112.209569 53.5199795,112.637871 C45.7468386,97.7755093 36.8424892,71.8472301 34.0073444,56.664371 C39.2758698,68.8695133 49.1689582,88.044028 58.8739868,101.190269 C54.243725,87.0592254 59.6575695,77.0247278 69.4395316,69.9096747 L69.4395316,69.9096747 Z M100.466559,62.0662172 C48.0491472,73.8634532 63.2107611,101.586521 69.0776589,109.800007 C74.1495763,100.129712 80.7715629,91.4733554 88.8068478,83.9212597 C82.9997873,92.7611742 79.1645059,102.446038 76.9305827,112.655352 C89.2314072,112.833083 114.875934,108.043096 100.466559,62.0662172 L100.466559,62.0662172 Z" id="Shape" fill="#37A18E"></path>
                    <path d="M75.1383153,66.9960575 C70.4909572,55.6620867 58.0961028,43.8415418 31.277627,33.9585523 C4.01179667,102.50431 45.3735683,109.295952 59.2187632,109.724253 C51.4456223,94.8618922 42.5412728,68.9336129 39.706128,53.7507538 C44.9746535,65.9558961 54.8677419,85.1304108 64.5727704,98.2766515 C59.9425087,84.1456082 65.3563531,74.1111106 75.1383153,66.9960575 L75.1383153,66.9960575 Z M106.165343,59.1526 C53.7479309,70.949836 68.9095447,98.6729034 74.7764425,106.88639 C79.8483599,97.2160948 86.4703465,88.5597382 94.5056314,81.0076425 C88.6985709,89.847557 84.8632895,99.5324205 82.6293663,109.741735 C94.9301908,109.919466 120.574717,105.129479 106.165343,59.1526 L106.165343,59.1526 Z" id="Shape" fill="#FFFFFF"></path>
                </g>
            </g>
        </g>
    </g>
</svg>