<?xml version="1.0" encoding="UTF-8" standalone="no"?>
<svg width="128px" height="128px" viewBox="0 0 128 128" version="1.1" xmlns="http://www.w3.org/2000/svg" xmlns:xlink="http://www.w3.org/1999/xlink">
    <!-- Generator: Sketch 3.7.2 (28276) - http://www.bohemiancoding.com/sketch -->
    <title>yaml</title>
    <desc>Created with Sketch.</desc>
    <defs></defs>
    <g id="Page-1" stroke="none" stroke-width="1" fill="none" fill-rule="evenodd">
        <g id="code-icons" transform="translate(-337.000000, 0.000000)">
            <g id="yaml" transform="translate(337.000000, 0.000000)">
                <g id="Group">
                    <path d="M20,0 L108,0 C119,0 128,9 128,20 L128,108 C128,119 119,128 108,128 L20,128 C9,128 0,119 0,108 L0,20 C0,9 9,0 20,0 L20,0 Z" id="Shape" fill="#E4E7E7"></path>
                    <path d="M20,8 L108,8 C114.6,8 120,13.4 120,20 L120,86 C120,92.6 114.6,98 108,98 L20,98 C13.4,98 8,92.6 8,86 L8,20 C8,13.4 13.4,8 20,8 L20,8 Z" id="Shape" fill="#2B414D"></path>
                    <path d="M22,14 L106,14 C110.4,14 114,17.6 114,22 L114,84 C114,88.4 110.4,92 106,92 L22,92 C17.6,92 14,88.4 14,84 L14,22 C14,17.6 17.6,14 22,14 L22,14 Z" id="Shape" fill="#324D5B"></path>
                    <path d="M29,106 C32.9,106 36,109.1 36,113 C36,116.9 32.9,120 29,120 C25.1,120 22,116.9 22,113 C22,109.1 25.1,106 29,106 L29,106 Z" id="Shape" fill="#E2574C"></path>
                    <path d="M29,110 C30.7,110 32,111.3 32,113 C32,114.7 30.7,116 29,116 C27.3,116 26,114.7 26,113 C26,111.4 27.3,110 29,110 L29,110 Z" id="Shape" fill="#F3B5B0"></path>
                    <path d="M51,108 C48.2,108 46,110.2 46,113 C46,115.8 48.2,118 51,118 C53.8,118 56,115.8 56,113 C56,110.2 53.8,108 51,108 L51,108 Z M67,108 C64.2,108 62,110.2 62,113 C62,115.8 64.2,118 67,118 C69.8,118 72,115.8 72,113 C72,110.2 69.8,108 67,108 L67,108 Z M83,108 C80.2,108 78,110.2 78,113 C78,115.8 80.2,118 83,118 C85.8,118 88,115.8 88,113 C88,110.2 85.8,108 83,108 L83,108 Z M99,108 C96.2,108 94,110.2 94,113 C94,115.8 96.2,118 99,118 C101.8,118 104,115.8 104,113 C104,110.2 101.8,108 99,108 L99,108 Z" id="Shape" fill="#CCD0D2"></path>
                    <path d="M114,49 L102,49 C101.1,49 100.3,49.5 100,50.4 L95.9,62.4 L87.8,36.4 C87.5,35.6 86.8,35 85.9,35 C85,34.9 84.2,35.5 83.9,36.3 L76.3,55.8 L73.1,50.1 C72.8,49.4 72,49 71.3,49 L57.3,49 C56.4,49 55.6,49.6 55.3,50.4 L51.2,62.4 L43,36.4 C42.7,35.6 42,35 41.1,35 C40.2,35 39.4,35.5 39.1,36.3 L31.5,55.8 L28.3,50 C28,49.3 27.2,49.1 26.5,49.1 L14,49.1 L14,53.1 L25.2,53.1 L29.9,61.7 C30.3,62.4 31,62.8 31.8,62.8 C32.6,62.8 33.3,62.3 33.6,61.5 L40.8,43.2 L49,69.6 C49.3,70.4 50.1,71 50.9,71 C51.7,71 52.6,70.5 52.9,69.6 L58.6,52.9 L70,52.9 L74.7,61.6 C75.1,62.3 75.8,62.7 76.6,62.7 C77.4,62.7 78.1,62.2 78.4,61.4 L85.6,43.1 L93.8,69.5 C94.1,70.3 94.8,70.9 95.7,70.9 C96.6,70.9 97.4,70.4 97.7,69.5 L103.4,52.9 L114,52.9 L114,49 L114,49 Z" id="Shape" fill="#26A6D1"></path>
                </g>
            </g>
        </g>
    </g>
</svg>