<svg xmlns="http://www.w3.org/2000/svg" viewBox="0 0 128 128" enable-background="new 0 0 128 128"><style type="text/css">.st0{fill:#EFEFEF;} .st1{fill:#2B414D;} .st2{fill:#E4E7E7;} .st3{fill:#E35E53;} .st4{fill:#26A6D1;} .st5{fill:#49B8A4;} .st6{fill:#BFC3C5;}</style><path class="st0" d="M6 0h116c3.3 0 6 2.7 6 6v116c0 3.3-2.7 6-6 6h-116c-3.3 0-6-2.7-6-6v-116c0-3.3 2.7-6 6-6z"/><path class="st1" d="M12 24h104c2.2 0 4 1.8 4 4v88c0 2.2-1.8 4-4 4h-104c-2.2 0-4-1.8-4-4v-88c0-2.2 1.8-4 4-4z"/><path class="st2" d="M28 42h58c1.1 0 2 .9 2 2v2c0 1.1-.9 2-2 2h-58c-1.1 0-2-.9-2-2v-2c0-1.1.9-2 2-2z"/><path class="st3" d="M52 56h-24c-1.1 0-2 .9-2 2v2c0 1.1.9 2 2 2h24c1.1 0 2-.9 2-2v-2c0-1.1-.9-2-2-2zm-6 28h-18c-1.1 0-2 .9-2 2v2c0 1.1.9 2 2 2h18c1.1 0 2-.9 2-2v-2c0-1.1-.9-2-2-2zm54 0h-12c-1.1 0-2 .9-2 2v2c0 1.1.9 2 2 2h12c1.1 0 2-.9 2-2v-2c0-1.1-.9-2-2-2z"/><path class="st4" d="M100 56h-36c-1.1 0-2 .9-2 2v2c0 1.1.9 2 2 2h36c1.1 0 2-.9 2-2v-2c0-1.1-.9-2-2-2zm0 42h-72c-1.1 0-2 .9-2 2v2c0 1.1.9 2 2 2h72c1.1 0 2-.9 2-2v-2c0-1.1-.9-2-2-2z"/><path class="st5" d="M76 70h-48c-1.1 0-2 .9-2 2v2c0 1.1.9 2 2 2h48c1.1 0 2-.9 2-2v-2c0-1.1-.9-2-2-2zm0 14h-18c-1.1 0-2 .9-2 2v2c0 1.1.9 2 2 2h18c1.1 0 2-.9 2-2v-2c0-1.1-.9-2-2-2z"/><path class="st6" d="M12 8c-2.2 0-4 1.8-4 4s1.8 4 4 4 4-1.8 4-4-1.8-4-4-4zm12 0c-2.2 0-4 1.8-4 4s1.8 4 4 4 4-1.8 4-4-1.8-4-4-4zm12 0c-2.2 0-4 1.8-4 4s1.8 4 4 4 4-1.8 4-4-1.8-4-4-4z"/></svg>